<svg xmlns="http://www.w3.org/2000/svg" xmlns:xlink="http://www.w3.org/1999/xlink" id="processonSvg1000" viewBox="68.0 33.0 450.0 652.0" width="450.0" height="652.0"><defs id="ProcessOnDefs1001"><marker id="ProcessOnMarker1019" markerUnits="userSpaceOnUse" orient="auto" markerWidth="16.23606797749979" markerHeight="10.550836550532098" viewBox="-1.0 -1.3763819204711736 16.23606797749979 10.550836550532098" refX="-1.0" refY="3.8990363547948754"><path id="ProcessOnPath1020" d="M12.0 3.8990363547948754L0.0 7.798072709589751V0.0Z" stroke="#323232" stroke-width="2.0" fill="#323232" transform="matrix(1.0,0.0,0.0,1.0,0.0,0.0)"/></marker><marker id="ProcessOnMarker1023" markerUnits="userSpaceOnUse" orient="auto" markerWidth="16.23606797749979" markerHeight="10.550836550532098" viewBox="-1.0 -1.3763819204711736 16.23606797749979 10.550836550532098" refX="-1.0" refY="3.8990363547948754"><path id="ProcessOnPath1024" d="M12.0 3.8990363547948754L0.0 7.798072709589751V0.0Z" stroke="#323232" stroke-width="2.0" fill="#323232" transform="matrix(1.0,0.0,0.0,1.0,0.0,0.0)"/></marker><marker id="ProcessOnMarker1034" markerUnits="userSpaceOnUse" orient="auto" markerWidth="16.23606797749979" markerHeight="10.550836550532098" viewBox="-1.0 -1.3763819204711736 16.23606797749979 10.550836550532098" refX="-1.0" refY="3.8990363547948754"><path id="ProcessOnPath1035" d="M12.0 3.8990363547948754L0.0 7.798072709589751V0.0Z" stroke="#323232" stroke-width="2.0" fill="#323232" transform="matrix(1.0,0.0,0.0,1.0,0.0,0.0)"/></marker></defs><g id="ProcessOnG1002"><path id="ProcessOnPath1003" d="M68.0 33.0H518.0V685.0H68.0V33.0Z" fill="none"/><g id="ProcessOnG1004"><g id="ProcessOnG1005" transform="matrix(1.0,0.0,0.0,1.0,88.0,53.0)" opacity="1.0"><path id="ProcessOnPath1006" d="M0 0L410.0 0L410.0 612.0L0 612.0Z" stroke="none" stroke-width="0.0" stroke-dasharray="none" fill="#ffffff"/></g><g id="ProcessOnG1007" transform="matrix(1.0,0.0,0.0,1.0,238.5,80.0)" opacity="1.0"><path id="ProcessOnPath1008" d="M0 0L100.0 0L100.0 70.0L0 70.0Z" stroke="#323232" stroke-width="2.0" stroke-dasharray="none" fill="#f5927b"/><g id="ProcessOnG1009" transform="matrix(1.0,0.0,0.0,1.0,10.0,26.875)"><text id="ProcessOnText1010" fill="#323232" font-size="13" x="39.0" y="13.325" font-family="微软雅黑" size="13" text-anchor="middle" font-weight="normal" font-style="normal" family="微软雅黑" text-decoration="none">mds tick()</text></g></g><g id="ProcessOnG1011" transform="matrix(1.0,0.0,0.0,1.0,211.08333587646484,234.0)" opacity="1.0"><path id="ProcessOnPath1012" d="M0 0L154.8333282470703 0L154.8333282470703 85.0L0 85.0Z" stroke="#323232" stroke-width="2.0" stroke-dasharray="none" fill="#f5927b"/><g id="ProcessOnG1013" transform="matrix(1.0,0.0,0.0,1.0,10.0,18.125)"><text id="ProcessOnText1014" fill="#323232" font-size="13" x="66.41666412353516" y="13.325" font-family="微软雅黑" size="13" text-anchor="middle" font-weight="normal" font-style="normal" family="微软雅黑" text-decoration="none">按照logsegments的se</text><text id="ProcessOnText1015" fill="#323232" font-size="13" x="66.41666412353516" y="29.575" font-family="微软雅黑" size="13" text-anchor="middle" font-weight="normal" font-style="normal" family="微软雅黑" text-decoration="none">qid，从小到大顺序遍</text><text id="ProcessOnText1016" fill="#323232" font-size="13" x="66.41666412353516" y="45.825" font-family="微软雅黑" size="13" text-anchor="middle" font-weight="normal" font-style="normal" family="微软雅黑" text-decoration="none">历</text></g></g><g id="ProcessOnG1017"><path id="ProcessOnPath1018" d="M288.5 150.0L288.5 192.0L288.5 192.0L288.5 218.7639320225002" stroke="#323232" stroke-width="2.0" stroke-dasharray="none" fill="none" marker-end="url(#ProcessOnMarker1019)"/></g><g id="ProcessOnG1021"><path id="ProcessOnPath1022" d="M288.5 319.0L288.5 361.0L288.5 361.0L288.5 387.7639320225002" stroke="#323232" stroke-width="2.0" stroke-dasharray="none" fill="none" marker-end="url(#ProcessOnMarker1023)"/></g><g id="ProcessOnG1025" transform="matrix(1.0,0.0,0.0,1.0,219.8333282470703,403.0)" opacity="1.0"><path id="ProcessOnPath1026" d="M0 0L137.33334350585938 0L137.33334350585938 77.0L0 77.0Z" stroke="#323232" stroke-width="2.0" stroke-dasharray="none" fill="#f5927b"/><g id="ProcessOnG1027" transform="matrix(1.0,0.0,0.0,1.0,10.0,6.0)"><text id="ProcessOnText1028" fill="#323232" font-size="13" x="57.66667175292969" y="13.325" font-family="微软雅黑" size="13" text-anchor="middle" font-weight="normal" font-style="normal" family="微软雅黑" text-decoration="none">将每个logsegment</text><text id="ProcessOnText1029" fill="#323232" font-size="13" x="57.66667175292969" y="29.575" font-family="微软雅黑" size="13" text-anchor="middle" font-weight="normal" font-style="normal" family="微软雅黑" text-decoration="none">中记录的uid/gid信</text><text id="ProcessOnText1030" fill="#323232" font-size="13" x="57.66667175292969" y="45.825" font-family="微软雅黑" size="13" text-anchor="middle" font-weight="normal" font-style="normal" family="微软雅黑" text-decoration="none">息更新到对应的对</text><text id="ProcessOnText1031" fill="#323232" font-size="13" x="57.66667175292969" y="62.075" font-family="微软雅黑" size="13" text-anchor="middle" font-weight="normal" font-style="normal" family="微软雅黑" text-decoration="none">象中</text></g></g><g id="ProcessOnG1032"><path id="ProcessOnPath1033" d="M288.5 480.0L288.5 522.0L288.5 522.0L288.5 548.7639320225002" stroke="#323232" stroke-width="2.0" stroke-dasharray="none" fill="none" marker-end="url(#ProcessOnMarker1034)"/></g><g id="ProcessOnG1036" transform="matrix(1.0,0.0,0.0,1.0,238.5,564.0)" opacity="1.0"><path id="ProcessOnPath1037" d="M0 0L100.0 0L100.0 70.0L0 70.0Z" stroke="#323232" stroke-width="2.0" stroke-dasharray="none" fill="#f5927b"/><g id="ProcessOnG1038" transform="matrix(1.0,0.0,0.0,1.0,10.0,10.625)"><text id="ProcessOnText1039" fill="#323232" font-size="13" x="39.0" y="13.325" font-family="微软雅黑" size="13" text-anchor="middle" font-weight="normal" font-style="normal" family="微软雅黑" text-decoration="none">将已完成更新</text><text id="ProcessOnText1040" fill="#323232" font-size="13" x="39.0" y="29.575" font-family="微软雅黑" size="13" text-anchor="middle" font-weight="normal" font-style="normal" family="微软雅黑" text-decoration="none">的logsegme</text><text id="ProcessOnText1041" fill="#323232" font-size="13" x="39.0" y="45.825" font-family="微软雅黑" size="13" text-anchor="middle" font-weight="normal" font-style="normal" family="微软雅黑" text-decoration="none">nt删除</text></g></g></g></g></svg>