<svg xmlns="http://www.w3.org/2000/svg" xmlns:xlink="http://www.w3.org/1999/xlink" id="processonSvg1000" viewBox="28.0 55.0 916.0 843.0" width="916.0" height="843.0"><defs id="ProcessOnDefs1001"><marker id="ProcessOnMarker1022" markerUnits="userSpaceOnUse" orient="auto" markerWidth="16.23606797749979" markerHeight="10.550836550532098" viewBox="-1.0 -1.3763819204711736 16.23606797749979 10.550836550532098" refX="-1.0" refY="3.8990363547948754"><path id="ProcessOnPath1023" d="M12.0 3.8990363547948754L0.0 7.798072709589751V0.0Z" stroke="#323232" stroke-width="2.0" fill="#323232" transform="matrix(1.0,0.0,0.0,1.0,0.0,0.0)"/></marker><marker id="ProcessOnMarker1026" markerUnits="userSpaceOnUse" orient="auto" markerWidth="16.23606797749979" markerHeight="10.550836550532098" viewBox="-1.0 -1.3763819204711736 16.23606797749979 10.550836550532098" refX="-1.0" refY="3.8990363547948754"><path id="ProcessOnPath1027" d="M12.0 3.8990363547948754L0.0 7.798072709589751V0.0Z" stroke="#323232" stroke-width="2.0" fill="#323232" transform="matrix(1.0,0.0,0.0,1.0,0.0,0.0)"/></marker><marker id="ProcessOnMarker1030" markerUnits="userSpaceOnUse" orient="auto" markerWidth="16.23606797749979" markerHeight="10.550836550532098" viewBox="-1.0 -1.3763819204711736 16.23606797749979 10.550836550532098" refX="-1.0" refY="3.8990363547948754"><path id="ProcessOnPath1031" d="M12.0 3.8990363547948754L0.0 7.798072709589751V0.0Z" stroke="#323232" stroke-width="2.0" fill="#323232" transform="matrix(1.0,0.0,0.0,1.0,0.0,0.0)"/></marker><marker id="ProcessOnMarker1039" markerUnits="userSpaceOnUse" orient="auto" markerWidth="16.23606797749979" markerHeight="10.550836550532098" viewBox="-1.0 -1.3763819204711736 16.23606797749979 10.550836550532098" refX="-1.0" refY="3.8990363547948754"><path id="ProcessOnPath1040" d="M12.0 3.8990363547948754L0.0 7.798072709589751V0.0Z" stroke="#323232" stroke-width="2.0" fill="#323232" transform="matrix(1.0,0.0,0.0,1.0,0.0,0.0)"/></marker><marker id="ProcessOnMarker1055" markerUnits="userSpaceOnUse" orient="auto" markerWidth="16.23606797749979" markerHeight="10.550836550532098" viewBox="-1.0 -1.3763819204711736 16.23606797749979 10.550836550532098" refX="-1.0" refY="3.8990363547948754"><path id="ProcessOnPath1056" d="M12.0 3.8990363547948754L0.0 7.798072709589751V0.0Z" stroke="#323232" stroke-width="2.0" fill="#323232" transform="matrix(1.0,0.0,0.0,1.0,0.0,0.0)"/></marker><marker id="ProcessOnMarker1066" markerUnits="userSpaceOnUse" orient="auto" markerWidth="16.23606797749979" markerHeight="10.550836550532098" viewBox="-1.0 -1.3763819204711736 16.23606797749979 10.550836550532098" refX="-1.0" refY="3.8990363547948754"><path id="ProcessOnPath1067" d="M12.0 3.8990363547948754L0.0 7.798072709589751V0.0Z" stroke="#323232" stroke-width="2.0" fill="#323232" transform="matrix(1.0,0.0,0.0,1.0,0.0,0.0)"/></marker><marker id="ProcessOnMarker1074" markerUnits="userSpaceOnUse" orient="auto" markerWidth="16.23606797749979" markerHeight="10.550836550532098" viewBox="-1.0 -1.3763819204711736 16.23606797749979 10.550836550532098" refX="-1.0" refY="3.8990363547948754"><path id="ProcessOnPath1075" d="M12.0 3.8990363547948754L0.0 7.798072709589751V0.0Z" stroke="#323232" stroke-width="2.0" fill="#323232" transform="matrix(1.0,0.0,0.0,1.0,0.0,0.0)"/></marker><marker id="ProcessOnMarker1081" markerUnits="userSpaceOnUse" orient="auto" markerWidth="16.23606797749979" markerHeight="10.550836550532098" viewBox="-1.0 -1.3763819204711736 16.23606797749979 10.550836550532098" refX="-1.0" refY="3.8990363547948754"><path id="ProcessOnPath1082" d="M12.0 3.8990363547948754L0.0 7.798072709589751V0.0Z" stroke="#323232" stroke-width="2.0" fill="#323232" transform="matrix(1.0,0.0,0.0,1.0,0.0,0.0)"/></marker><marker id="ProcessOnMarker1088" markerUnits="userSpaceOnUse" orient="auto" markerWidth="16.23606797749979" markerHeight="10.550836550532098" viewBox="-1.0 -1.3763819204711736 16.23606797749979 10.550836550532098" refX="-1.0" refY="3.8990363547948754"><path id="ProcessOnPath1089" d="M12.0 3.8990363547948754L0.0 7.798072709589751V0.0Z" stroke="#323232" stroke-width="2.0" fill="#323232" transform="matrix(1.0,0.0,0.0,1.0,0.0,0.0)"/></marker><marker id="ProcessOnMarker1097" markerUnits="userSpaceOnUse" orient="auto" markerWidth="16.23606797749979" markerHeight="10.550836550532098" viewBox="-1.0 -1.3763819204711736 16.23606797749979 10.550836550532098" refX="-1.0" refY="3.8990363547948754"><path id="ProcessOnPath1098" d="M12.0 3.8990363547948754L0.0 7.798072709589751V0.0Z" stroke="#323232" stroke-width="2.0" fill="#323232" transform="matrix(1.0,0.0,0.0,1.0,0.0,0.0)"/></marker><marker id="ProcessOnMarker1109" markerUnits="userSpaceOnUse" orient="auto" markerWidth="16.23606797749979" markerHeight="10.550836550532098" viewBox="-1.0 -1.3763819204711736 16.23606797749979 10.550836550532098" refX="-1.0" refY="3.8990363547948754"><path id="ProcessOnPath1110" d="M12.0 3.8990363547948754L0.0 7.798072709589751V0.0Z" stroke="#323232" stroke-width="2.0" fill="#323232" transform="matrix(1.0,0.0,0.0,1.0,0.0,0.0)"/></marker><marker id="ProcessOnMarker1121" markerUnits="userSpaceOnUse" orient="auto" markerWidth="16.23606797749979" markerHeight="10.550836550532098" viewBox="-1.0 -1.3763819204711736 16.23606797749979 10.550836550532098" refX="-1.0" refY="3.8990363547948754"><path id="ProcessOnPath1122" d="M12.0 3.8990363547948754L0.0 7.798072709589751V0.0Z" stroke="#323232" stroke-width="2.0" fill="#323232" transform="matrix(1.0,0.0,0.0,1.0,0.0,0.0)"/></marker><marker id="ProcessOnMarker1128" markerUnits="userSpaceOnUse" orient="auto" markerWidth="16.23606797749979" markerHeight="10.550836550532098" viewBox="-1.0 -1.3763819204711736 16.23606797749979 10.550836550532098" refX="-1.0" refY="3.8990363547948754"><path id="ProcessOnPath1129" d="M12.0 3.8990363547948754L0.0 7.798072709589751V0.0Z" stroke="#323232" stroke-width="2.0" fill="#323232" transform="matrix(1.0,0.0,0.0,1.0,0.0,0.0)"/></marker></defs><g id="ProcessOnG1002"><path id="ProcessOnPath1003" d="M28.0 55.0H944.0V898.0H28.0V55.0Z" fill="#ffffff"/><g id="ProcessOnG1004"><g id="ProcessOnG1005" transform="matrix(1.0,0.0,0.0,1.0,48.0,75.0)" opacity="1.0"><path id="ProcessOnPath1006" d="M0 0L876.0 0L876.0 803.0L0 803.0Z" stroke="none" stroke-width="0.0" stroke-dasharray="none" fill="#ffffff"/></g><g id="ProcessOnG1007" transform="matrix(1.0,0.0,0.0,1.0,156.0,99.0)" opacity="1.0"><path id="ProcessOnPath1008" d="M0 0L100.0 0L100.0 70.0L0 70.0Z" stroke="#323232" stroke-width="2.0" stroke-dasharray="none" fill="#f5927b"/><g id="ProcessOnG1009" transform="matrix(1.0,0.0,0.0,1.0,10.0,26.875)"><text id="ProcessOnText1010" fill="#323232" font-size="13" x="39.0" y="13.325" font-family="微软雅黑" size="13" text-anchor="middle" font-weight="normal" font-style="normal" family="微软雅黑" text-decoration="none">file handle</text></g></g><g id="ProcessOnG1011" transform="matrix(1.0,0.0,0.0,1.0,317.0,99.0)" opacity="1.0"><path id="ProcessOnPath1012" d="M0 0L100.0 0L100.0 70.0L0 70.0Z" stroke="#323232" stroke-width="2.0" stroke-dasharray="none" fill="#f5927b"/><g id="ProcessOnG1013" transform="matrix(1.0,0.0,0.0,1.0,10.0,26.875)"><text id="ProcessOnText1014" fill="#323232" font-size="13" x="39.0" y="13.325" font-family="微软雅黑" size="13" text-anchor="middle" font-weight="normal" font-style="normal" family="微软雅黑" text-decoration="none">cap update</text></g></g><g id="ProcessOnG1015" transform="matrix(1.0,0.0,0.0,1.0,241.0,244.0)" opacity="1.0"><path id="ProcessOnPath1016" d="M0 0L100.0 0L100.0 70.0L0 70.0Z" stroke="#323232" stroke-width="2.0" stroke-dasharray="none" fill="#f5927b"/><g id="ProcessOnG1017" transform="matrix(1.0,0.0,0.0,1.0,10.0,18.75)"><text id="ProcessOnText1018" fill="#323232" font-size="13" x="39.0" y="13.325" font-family="微软雅黑" size="13" text-anchor="middle" font-weight="normal" font-style="normal" family="微软雅黑" text-decoration="none">new </text><text id="ProcessOnText1019" fill="#323232" font-size="13" x="39.0" y="29.575" font-family="微软雅黑" size="13" text-anchor="middle" font-weight="normal" font-style="normal" family="微软雅黑" text-decoration="none">EUpdate</text></g></g><g id="ProcessOnG1020"><path id="ProcessOnPath1021" d="M206.0 169.0L206.0 206.5L291.0 206.5L291.0 228.7639320225002" stroke="#323232" stroke-width="2.0" stroke-dasharray="none" fill="none" marker-end="url(#ProcessOnMarker1022)"/></g><g id="ProcessOnG1024"><path id="ProcessOnPath1025" d="M367.0 169.0L367.0 206.5L291.0 206.5L291.0 228.7639320225002" stroke="#323232" stroke-width="2.0" stroke-dasharray="none" fill="none" marker-end="url(#ProcessOnMarker1026)"/></g><g id="ProcessOnG1028"><path id="ProcessOnPath1029" d="M291.0 314.0L291.0 348.5L291.0 348.5L291.0 367.7639320225002" stroke="#323232" stroke-width="2.0" stroke-dasharray="none" fill="none" marker-end="url(#ProcessOnMarker1030)"/></g><g id="ProcessOnG1032" transform="matrix(1.0,0.0,0.0,1.0,86.0,244.0)" opacity="1.0"><path id="ProcessOnPath1033" d="M23.333333333333332 0L100.0 0L76.66666666666667 70.0L0 70.0L23.333333333333332 0Z" stroke="#323232" stroke-width="2.0" stroke-dasharray="none" fill="#f5927b"/><g id="ProcessOnG1034" transform="matrix(1.0,0.0,0.0,1.0,15.0,18.75)"><text id="ProcessOnText1035" fill="#323232" font-size="13" x="34.0" y="13.325" font-family="微软雅黑" size="13" text-anchor="middle" font-weight="normal" font-style="normal" family="微软雅黑" text-decoration="none">uid/gid</text><text id="ProcessOnText1036" fill="#323232" font-size="13" x="34.0" y="29.575" font-family="微软雅黑" size="13" text-anchor="middle" font-weight="normal" font-style="normal" family="微软雅黑" text-decoration="none">count info</text></g></g><g id="ProcessOnG1037"><path id="ProcessOnPath1038" d="M174.33333333333331 279.0L207.66666666666666 279.0L207.66666666666666 279.0L225.7639320225002 279.0" stroke="#323232" stroke-width="2.0" stroke-dasharray="none" fill="none" marker-end="url(#ProcessOnMarker1039)"/></g><g id="ProcessOnG1041" transform="matrix(1.0,0.0,0.0,1.0,207.0,383.0)" opacity="1.0"><path id="ProcessOnPath1042" d="M0 0L168.0 0L168.0 85.0L0 85.0Z" stroke="#323232" stroke-width="2.0" stroke-dasharray="none" fill="#f5927b"/><g id="ProcessOnG1043" transform="matrix(1.0,0.0,0.0,1.0,10.0,18.125)"><text id="ProcessOnText1044" fill="#323232" font-size="13" x="73.0" y="13.325" font-family="微软雅黑" size="13" text-anchor="middle" font-weight="normal" font-style="normal" family="微软雅黑" text-decoration="none">EUpdate</text><text id="ProcessOnText1045" fill="#323232" font-size="13" x="73.0" y="29.575" font-family="微软雅黑" size="13" text-anchor="middle" font-weight="normal" font-style="normal" family="微软雅黑" text-decoration="none">submit，和当前的logse</text><text id="ProcessOnText1046" fill="#323232" font-size="13" x="73.0" y="45.825" font-family="微软雅黑" size="13" text-anchor="middle" font-weight="normal" font-style="normal" family="微软雅黑" text-decoration="none">gment关联</text></g></g><g id="ProcessOnG1047" transform="matrix(1.0,0.0,0.0,1.0,241.0,562.0)" opacity="1.0"><path id="ProcessOnPath1048" d="M0 0L100.0 0L100.0 70.0L0 70.0Z" stroke="#323232" stroke-width="2.0" stroke-dasharray="none" fill="#f5927b"/><g id="ProcessOnG1049" transform="matrix(1.0,0.0,0.0,1.0,10.0,10.625)"><text id="ProcessOnText1050" fill="#323232" font-size="13" x="39.0" y="13.325" font-family="微软雅黑" size="13" text-anchor="middle" font-weight="normal" font-style="normal" family="微软雅黑" text-decoration="none">遍历pending</text><text id="ProcessOnText1051" fill="#323232" font-size="13" x="39.0" y="29.575" font-family="微软雅黑" size="13" text-anchor="middle" font-weight="normal" font-style="normal" family="微软雅黑" text-decoration="none">_events，下</text><text id="ProcessOnText1052" fill="#323232" font-size="13" x="39.0" y="45.825" font-family="微软雅黑" size="13" text-anchor="middle" font-weight="normal" font-style="normal" family="微软雅黑" text-decoration="none">盘</text></g></g><g id="ProcessOnG1053"><path id="ProcessOnPath1054" d="M291.0 468.0L291.0 515.0L291.0 515.0L291.0 546.7639320225002" stroke="#323232" stroke-width="2.0" stroke-dasharray="none" fill="none" marker-end="url(#ProcessOnMarker1055)"/><g id="ProcessOnG1057" transform="matrix(1.0,0.0,0.0,1.0,291.0,499.2569660112501)"><path id="ProcessOnPath1058" d="M0 0H52.0V16.250000000000057H0Z" fill="#fff" transform="matrix(1.0,0.0,0.0,1.0,-26.0,0.0)"/><text id="ProcessOnText1059" fill="#323232" font-size="13" x="0.0" y="13.325" font-family="微软雅黑" size="13" text-anchor="middle" font-weight="normal" font-style="normal" family="微软雅黑" text-decoration="none">加入队列</text></g></g><g id="ProcessOnG1060" transform="matrix(1.0,0.0,0.0,1.0,241.0,695.0)" opacity="1.0"><path id="ProcessOnPath1061" d="M15.0 0L88.33333333333333 0C103.18181818181819 0 103.18181818181819 70.0 88.33333333333333 70.0L15.0 70.0C-5.0 70.0 -5.0 0 15.0 0ZM88.33333333333333 0C73.75 0 73.75 70.0 88.33333333333333 70.0C73.75 70.0 73.75 0 88.33333333333333 0" stroke="#323232" stroke-width="2.0" stroke-dasharray="none" fill="#f5927b"/><g id="ProcessOnG1062" transform="matrix(1.0,0.0,0.0,1.0,0.0,26.875)"><text id="ProcessOnText1063" fill="#323232" font-size="13" x="39.0" y="13.325" font-family="微软雅黑" size="13" text-anchor="middle" font-weight="normal" font-style="normal" family="微软雅黑" text-decoration="none">存储</text></g></g><g id="ProcessOnG1064"><path id="ProcessOnPath1065" d="M291.0 632.0L291.0 663.5L291.0 663.5L291.0 679.7639320225002" stroke="#323232" stroke-width="2.0" stroke-dasharray="none" fill="none" marker-end="url(#ProcessOnMarker1066)"/></g><g id="ProcessOnG1068" transform="matrix(1.0,0.0,0.0,1.0,482.0,390.5)" opacity="1.0"><path id="ProcessOnPath1069" d="M0 0L100.0 0L100.0 70.0L0 70.0Z" stroke="#323232" stroke-width="2.0" stroke-dasharray="none" fill="#f5927b"/><g id="ProcessOnG1070" transform="matrix(1.0,0.0,0.0,1.0,10.0,26.875)"><text id="ProcessOnText1071" fill="#323232" font-size="13" x="39.0" y="13.325" font-family="微软雅黑" size="13" text-anchor="middle" font-weight="normal" font-style="normal" family="微软雅黑" text-decoration="none">回调操作</text></g></g><g id="ProcessOnG1072"><path id="ProcessOnPath1073" d="M375.0 425.5L428.5 425.5L428.5 425.5L466.7639320225002 425.5" stroke="#323232" stroke-width="2.0" stroke-dasharray="none" fill="none" marker-end="url(#ProcessOnMarker1074)"/><g id="ProcessOnG1076" transform="matrix(1.0,0.0,0.0,1.0,420.88196601125014,417.375)"><path id="ProcessOnPath1077" d="M0 0H26.0V16.25H0Z" fill="#fff" transform="matrix(1.0,0.0,0.0,1.0,-13.0,0.0)"/><text id="ProcessOnText1078" fill="#323232" font-size="13" x="0.0" y="13.325" font-family="微软雅黑" size="13" text-anchor="middle" font-weight="normal" font-style="normal" family="微软雅黑" text-decoration="none">关联</text></g></g><g id="ProcessOnG1079"><path id="ProcessOnPath1080" d="M341.0 730.0L532.0 730.0L532.0 475.7360679774998" stroke="#323232" stroke-width="2.0" stroke-dasharray="2.0 3.0" fill="none" marker-end="url(#ProcessOnMarker1081)"/><g id="ProcessOnG1083" transform="matrix(1.0,0.0,0.0,1.0,532.0,690.2430339887499)"><path id="ProcessOnPath1084" d="M0 0H52.0V16.25H0Z" fill="#fff" transform="matrix(1.0,0.0,0.0,1.0,-26.0,0.0)"/><text id="ProcessOnText1085" fill="#323232" font-size="13" x="0.0" y="13.325" font-family="微软雅黑" size="13" text-anchor="middle" font-weight="normal" font-style="normal" family="微软雅黑" text-decoration="none">调用回调</text></g></g><g id="ProcessOnG1086"><path id="ProcessOnPath1087" d="M582.0 425.5L637.5 425.5L637.5 425.5L677.7639320225002 425.5" stroke="#323232" stroke-width="2.0" stroke-dasharray="none" fill="none" marker-end="url(#ProcessOnMarker1088)"/></g><g id="ProcessOnG1090" transform="matrix(1.0,0.0,0.0,1.0,693.0,366.625)" opacity="1.0"><path id="ProcessOnPath1091" d="M0 58.875L74.5 0L149.0 58.875L74.5 117.75L0 58.875Z" stroke="#323232" stroke-width="2.0" stroke-dasharray="none" fill="#f5927b"/><g id="ProcessOnG1092" transform="matrix(1.0,0.0,0.0,1.0,10.0,42.625)"><text id="ProcessOnText1093" fill="#323232" font-size="13" x="63.5" y="13.325" font-family="微软雅黑" size="13" text-anchor="middle" font-weight="normal" font-style="normal" family="微软雅黑" text-decoration="none">logSegment是否记录</text><text id="ProcessOnText1094" fill="#323232" font-size="13" x="63.5" y="29.575" font-family="微软雅黑" size="13" text-anchor="middle" font-weight="normal" font-style="normal" family="微软雅黑" text-decoration="none">了uid/gid的信息</text></g></g><g id="ProcessOnG1095"><path id="ProcessOnPath1096" d="M767.5 484.375L767.5 534.6875L767.5 534.6875L767.5 569.7639320225002" stroke="#323232" stroke-width="2.0" stroke-dasharray="none" fill="none" marker-end="url(#ProcessOnMarker1097)"/><g id="ProcessOnG1099" transform="matrix(1.0,0.0,0.0,1.0,767.5,518.9444660112501)"><path id="ProcessOnPath1100" d="M0 0H13.0V16.25H0Z" fill="#fff" transform="matrix(1.0,0.0,0.0,1.0,-6.5,0.0)"/><text id="ProcessOnText1101" fill="#323232" font-size="13" x="0.0" y="13.325" font-family="微软雅黑" size="13" text-anchor="middle" font-weight="normal" font-style="normal" family="微软雅黑" text-decoration="none">是</text></g></g><g id="ProcessOnG1102" transform="matrix(1.0,0.0,0.0,1.0,695.375,585.0)" opacity="1.0"><path id="ProcessOnPath1103" d="M0 49.0L72.125 0L144.25 49.0L72.125 98.0L0 49.0Z" stroke="#323232" stroke-width="2.0" stroke-dasharray="none" fill="#f5927b"/><g id="ProcessOnG1104" transform="matrix(1.0,0.0,0.0,1.0,10.0,32.75)"><text id="ProcessOnText1105" fill="#323232" font-size="13" x="61.125" y="13.325" font-family="微软雅黑" size="13" text-anchor="middle" font-weight="normal" font-style="normal" family="微软雅黑" text-decoration="none">新的统计信息的seqi</text><text id="ProcessOnText1106" fill="#323232" font-size="13" x="61.125" y="29.575" font-family="微软雅黑" size="13" text-anchor="middle" font-weight="normal" font-style="normal" family="微软雅黑" text-decoration="none">d是否大于已记录的</text></g></g><g id="ProcessOnG1107"><path id="ProcessOnPath1108" d="M767.5 683.0L767.5 717.0L767.5 717.0L767.5 735.7639320225002" stroke="#323232" stroke-width="2.0" stroke-dasharray="none" fill="none" marker-end="url(#ProcessOnMarker1109)"/><g id="ProcessOnG1111" transform="matrix(1.0,0.0,0.0,1.0,767.5,701.2569660112501)"><path id="ProcessOnPath1112" d="M0 0H13.0V16.25H0Z" fill="#fff" transform="matrix(1.0,0.0,0.0,1.0,-6.5,0.0)"/><text id="ProcessOnText1113" fill="#323232" font-size="13" x="0.0" y="13.325" font-family="微软雅黑" size="13" text-anchor="middle" font-weight="normal" font-style="normal" family="微软雅黑" text-decoration="none">是</text></g></g><g id="ProcessOnG1114" transform="matrix(1.0,0.0,0.0,1.0,717.5,751.0)" opacity="1.0"><path id="ProcessOnPath1115" d="M0 0L100.0 0L100.0 70.0L0 70.0Z" stroke="#323232" stroke-width="2.0" stroke-dasharray="none" fill="#f5927b"/><g id="ProcessOnG1116" transform="matrix(1.0,0.0,0.0,1.0,10.0,18.75)"><text id="ProcessOnText1117" fill="#323232" font-size="13" x="39.0" y="13.325" font-family="微软雅黑" size="13" text-anchor="middle" font-weight="normal" font-style="normal" family="微软雅黑" text-decoration="none">更新logSeg</text><text id="ProcessOnText1118" fill="#323232" font-size="13" x="39.0" y="29.575" font-family="微软雅黑" size="13" text-anchor="middle" font-weight="normal" font-style="normal" family="微软雅黑" text-decoration="none">ment</text></g></g><g id="ProcessOnG1119"><path id="ProcessOnPath1120" d="M842.0 425.5L872.0 425.5L872.0 786.0L832.7360679774998 786.0" stroke="#323232" stroke-width="2.0" stroke-dasharray="none" fill="none" marker-end="url(#ProcessOnMarker1121)"/><g id="ProcessOnG1123" transform="matrix(1.0,0.0,0.0,1.0,872.0,602.2569660112501)"><path id="ProcessOnPath1124" d="M0 0H13.0V16.25H0Z" fill="#fff" transform="matrix(1.0,0.0,0.0,1.0,-6.5,0.0)"/><text id="ProcessOnText1125" fill="#323232" font-size="13" x="0.0" y="13.325" font-family="微软雅黑" size="13" text-anchor="middle" font-weight="normal" font-style="normal" family="微软雅黑" text-decoration="none">否</text></g></g><g id="ProcessOnG1126"><path id="ProcessOnPath1127" d="M695.375 634.0L645.0 634.0L645.0 735.7639320225002" stroke="#323232" stroke-width="2.0" stroke-dasharray="none" fill="none" marker-end="url(#ProcessOnMarker1128)"/></g><g id="ProcessOnG1130" transform="matrix(1.0,0.0,0.0,1.0,595.375,751.0)" opacity="1.0"><path id="ProcessOnPath1131" d="M0 0L100.0 0L100.0 70.0L0 70.0Z" stroke="#323232" stroke-width="2.0" stroke-dasharray="none" fill="#f5927b"/><g id="ProcessOnG1132" transform="matrix(1.0,0.0,0.0,1.0,10.0,18.75)"><text id="ProcessOnText1133" fill="#323232" font-size="13" x="39.0" y="13.325" font-family="微软雅黑" size="13" text-anchor="middle" font-weight="normal" font-style="normal" family="微软雅黑" text-decoration="none">不更新logSe</text><text id="ProcessOnText1134" fill="#323232" font-size="13" x="39.0" y="29.575" font-family="微软雅黑" size="13" text-anchor="middle" font-weight="normal" font-style="normal" family="微软雅黑" text-decoration="none">gment</text></g></g></g></g></svg>