<svg xmlns="http://www.w3.org/2000/svg" id="SvgjsSvg1310" width="743" height="1914" version="1.1" xmlns:xlink="http://www.w3.org/1999/xlink" xmlns:svgjs="http://svgjs.com/svgjs"><defs id="SvgjsDefs1311"><marker id="SvgjsMarker1420" viewBox="0 0 16 12" refX="16" refY="6" markerUnits="userSpaceOnUse" markerWidth="16" markerHeight="12" orient="auto"><path id="SvgjsPath1421" fill="#323232" stroke="#323232" stroke-width="2" d="M 0 2 L 14 6 L 0 11 L 0 2" /></marker><marker id="SvgjsMarker1428" viewBox="0 0 16 16" refX="11" refY="8" markerUnits="userSpaceOnUse" markerWidth="16" markerHeight="16" orient="auto"><path id="SvgjsPath1429" fill="none" stroke="#323232" stroke-width="2" d="M 0 0 L 10 8 L 0 16" /></marker><marker id="SvgjsMarker1432" viewBox="0 0 16 16" refX="11" refY="8" markerUnits="userSpaceOnUse" markerWidth="16" markerHeight="16" orient="auto"><path id="SvgjsPath1433" fill="none" stroke="#323232" stroke-width="2" d="M 0 0 L 10 8 L 0 16" /></marker><marker id="SvgjsMarker1444" viewBox="0 0 16 12" refX="16" refY="6" markerUnits="userSpaceOnUse" markerWidth="16" markerHeight="12" orient="auto"><path id="SvgjsPath1445" fill="#323232" stroke="#323232" stroke-width="2" d="M 0 2 L 14 6 L 0 11 L 0 2" /></marker><marker id="SvgjsMarker1452" viewBox="0 0 16 16" refX="11" refY="8" markerUnits="userSpaceOnUse" markerWidth="16" markerHeight="16" orient="auto"><path id="SvgjsPath1453" fill="none" stroke="#323232" stroke-width="2" d="M 0 0 L 10 8 L 0 16" /></marker><marker id="SvgjsMarker1456" viewBox="0 0 16 16" refX="11" refY="8" markerUnits="userSpaceOnUse" markerWidth="16" markerHeight="16" orient="auto"><path id="SvgjsPath1457" fill="none" stroke="#323232" stroke-width="2" d="M 0 0 L 10 8 L 0 16" /></marker><marker id="SvgjsMarker1474" viewBox="0 0 16 12" refX="16" refY="6" markerUnits="userSpaceOnUse" markerWidth="16" markerHeight="12" orient="auto"><path id="SvgjsPath1475" fill="#323232" stroke="#323232" stroke-width="2" d="M 0 2 L 14 6 L 0 11 L 0 2" /></marker><marker id="SvgjsMarker1482" viewBox="0 0 16 16" refX="11" refY="8" markerUnits="userSpaceOnUse" markerWidth="16" markerHeight="16" orient="auto"><path id="SvgjsPath1483" fill="none" stroke="#323232" stroke-width="2" d="M 0 0 L 10 8 L 0 16" /></marker><marker id="SvgjsMarker1490" viewBox="0 0 16 16" refX="11" refY="8" markerUnits="userSpaceOnUse" markerWidth="16" markerHeight="16" orient="auto"><path id="SvgjsPath1491" fill="none" stroke="#323232" stroke-width="2" d="M 0 0 L 10 8 L 0 16" /></marker><marker id="SvgjsMarker1498" viewBox="0 0 16 16" refX="11" refY="8" markerUnits="userSpaceOnUse" markerWidth="16" markerHeight="16" orient="auto"><path id="SvgjsPath1499" fill="none" stroke="#323232" stroke-width="2" d="M 0 0 L 10 8 L 0 16" /></marker><marker id="SvgjsMarker1512" viewBox="0 0 16 16" refX="11" refY="8" markerUnits="userSpaceOnUse" markerWidth="16" markerHeight="16" orient="auto"><path id="SvgjsPath1513" fill="none" stroke="#323232" stroke-width="2" d="M 0 0 L 10 8 L 0 16" /></marker><marker id="SvgjsMarker1526" viewBox="0 0 16 16" refX="11" refY="8" markerUnits="userSpaceOnUse" markerWidth="16" markerHeight="16" orient="auto"><path id="SvgjsPath1527" fill="none" stroke="#323232" stroke-width="2" d="M 0 0 L 10 8 L 0 16" /></marker><marker id="SvgjsMarker1534" viewBox="0 0 16 16" refX="11" refY="8" markerUnits="userSpaceOnUse" markerWidth="16" markerHeight="16" orient="auto"><path id="SvgjsPath1535" fill="none" stroke="#323232" stroke-width="2" d="M 0 0 L 10 8 L 0 16" /></marker><marker id="SvgjsMarker1550" viewBox="0 0 16 16" refX="11" refY="8" markerUnits="userSpaceOnUse" markerWidth="16" markerHeight="16" orient="auto"><path id="SvgjsPath1551" fill="none" stroke="#323232" stroke-width="2" d="M 0 0 L 10 8 L 0 16" /></marker><marker id="SvgjsMarker1560" viewBox="0 0 16 16" refX="11" refY="8" markerUnits="userSpaceOnUse" markerWidth="16" markerHeight="16" orient="auto"><path id="SvgjsPath1561" fill="none" stroke="#323232" stroke-width="2" d="M 0 0 L 10 8 L 0 16" /></marker><marker id="SvgjsMarker1576" viewBox="0 0 16 12" refX="16" refY="6" markerUnits="userSpaceOnUse" markerWidth="16" markerHeight="12" orient="auto"><path id="SvgjsPath1577" fill="#323232" stroke="#323232" stroke-width="2" d="M 0 2 L 14 6 L 0 11 L 0 2" /></marker><marker id="SvgjsMarker1584" viewBox="0 0 16 16" refX="11" refY="8" markerUnits="userSpaceOnUse" markerWidth="16" markerHeight="16" orient="auto"><path id="SvgjsPath1585" fill="none" stroke="#323232" stroke-width="2" d="M 0 0 L 10 8 L 0 16" /></marker><marker id="SvgjsMarker1592" viewBox="0 0 16 12" refX="16" refY="6" markerUnits="userSpaceOnUse" markerWidth="16" markerHeight="12" orient="auto"><path id="SvgjsPath1593" fill="#323232" stroke="#323232" stroke-width="2" d="M 0 2 L 14 6 L 0 11 L 0 2" /></marker><marker id="SvgjsMarker1608" viewBox="0 0 16 16" refX="11" refY="8" markerUnits="userSpaceOnUse" markerWidth="16" markerHeight="16" orient="auto"><path id="SvgjsPath1609" fill="none" stroke="#323232" stroke-width="2" d="M 0 0 L 10 8 L 0 16" /></marker></defs><g id="SvgjsG1312" transform="translate(25 25)"><path id="SvgjsPath1313" fill="#ffffff" fill-opacity="1" stroke="none" d="M 0 0 L 693 0 L 693 1864 L 0 1864 Z" /><g id="SvgjsG1314"><text id="SvgjsText1315" font-family="Arial" font-size="13px" font-style="" font-weight="400" fill="#323232" text-anchor="middle" transform="rotate(0)" y="922.05" width="0" align="middle" anchor="middle" family="Arial" size="13px" weight="400"><tspan id="SvgjsTspan1316" x="346.5" dy="16"><tspan id="SvgjsTspan1317" style="text-decoration:;"> </tspan></tspan></text></g></g><g id="SvgjsG1318" transform="translate(94 1641)"><path id="SvgjsPath1319" fill="none" stroke="#323232" stroke-dasharray="10px, 6px" stroke-width="1" d="M 0 4 Q 0 0 4 0 L 562 0 Q 566 0 566 4 L 566 150 Q 566 154 562 154 L 4 154 Q 0 154 0 150 Z" /><path id="SvgjsPath1320" fill="none" stroke="#323232" stroke-dasharray="10px, 6px" stroke-width="1" d="M 0 25 L 169.8 25 L 177.8 17 L 177.8 0" /><path id="SvgjsPath1321" fill="none" stroke="none" d="M 0 0 L 566 0 L 566 154 L 0 154 Z" /><g id="SvgjsG1322"><text id="SvgjsText1323" font-family="Arial" font-size="13px" font-style="" font-weight="400" fill="#323232" text-anchor="start" transform="rotate(0)" y="28.05" width="61" align="top" anchor="start" family="Arial" size="13px" weight="400"><tspan id="SvgjsTspan1324" x="10" dy="16"><tspan id="SvgjsTspan1325" style="text-decoration:;">[rep = yes]</tspan></tspan></text></g><g id="SvgjsG1326"><text id="SvgjsText1327" font-family="Arial" font-size="13px" font-style="" font-weight="400" fill="#323232" text-anchor="start" transform="rotate(0)" y="2.55" width="15" align="middle" anchor="start" family="Arial" size="13px" weight="400"><tspan id="SvgjsTspan1328" x="10" dy="16"><tspan id="SvgjsTspan1329" style="text-decoration:;">Alt</tspan></tspan></text></g></g><g id="SvgjsG1330"><path id="SvgjsPath1331" fill="none" stroke="#323232" stroke-dasharray="8px, 5px" stroke-width="1" d="M 126.181 1725.59 L 366.589 1725.59 L 366.589 1725.59 L 606.997 1725.59" /></g><g id="SvgjsG1332" transform="translate(68 1445)"><path id="SvgjsPath1333" fill="none" stroke="#323232" stroke-dasharray="10px, 6px" stroke-width="2" d="M 0 4 Q 0 0 4 0 L 594 0 Q 598 0 598 4 L 598 360 Q 598 364 594 364 L 4 364 Q 0 364 0 360 Z" /><path id="SvgjsPath1334" fill="none" stroke="#323232" stroke-dasharray="10px, 6px" stroke-width="2" d="M 0 25 L 179.4 25 L 187.4 17 L 187.4 0" /><path id="SvgjsPath1335" fill="none" stroke="none" d="M 0 0 L 598 0 L 598 364 L 0 364 Z" /><g id="SvgjsG1336"><text id="SvgjsText1337" font-family="Arial" font-size="13px" font-style="" font-weight="400" fill="#323232" text-anchor="start" transform="rotate(0)" y="28.05" width="107" align="top" anchor="start" family="Arial" size="13px" weight="400"><tspan id="SvgjsTspan1338" x="10" dy="16"><tspan id="SvgjsTspan1339" style="text-decoration:;">[flag=approaching]</tspan></tspan></text></g><g id="SvgjsG1340"><text id="SvgjsText1341" font-family="Arial" font-size="13px" font-style="" font-weight="400" fill="#323232" text-anchor="start" transform="rotate(0)" y="2.55" width="15" align="middle" anchor="start" family="Arial" size="13px" weight="400"><tspan id="SvgjsTspan1342" x="10" dy="16"><tspan id="SvgjsTspan1343" style="text-decoration:;">Alt</tspan></tspan></text></g></g><g id="SvgjsG1344" transform="translate(68 735)"><path id="SvgjsPath1345" fill="none" stroke="#323232" stroke-dasharray="10px, 6px" stroke-width="2" d="M 0 4 Q 0 0 4 0 L 603 0 Q 607 0 607 4 L 607 538 Q 607 542 603 542 L 4 542 Q 0 542 0 538 Z" /><path id="SvgjsPath1346" fill="none" stroke="#323232" stroke-dasharray="10px, 6px" stroke-width="2" d="M 0 25 L 182.1 25 L 190.1 17 L 190.1 0" /><path id="SvgjsPath1347" fill="none" stroke="none" d="M 0 0 L 607 0 L 607 542 L 0 542 Z" /><g id="SvgjsG1348"><text id="SvgjsText1349" font-family="Arial" font-size="13px" font-style="" font-weight="400" fill="#323232" text-anchor="start" transform="rotate(0)" y="28.05" width="96" align="top" anchor="start" family="Arial" size="13px" weight="400"><tspan id="SvgjsTspan1350" x="10" dy="16"><tspan id="SvgjsTspan1351" style="text-decoration:;">[maxsize &lt; 1GB]</tspan></tspan></text></g><g id="SvgjsG1352"><text id="SvgjsText1353" font-family="Arial" font-size="13px" font-style="" font-weight="400" fill="#323232" text-anchor="start" transform="rotate(0)" y="2.55" width="15" align="middle" anchor="start" family="Arial" size="13px" weight="400"><tspan id="SvgjsTspan1354" x="10" dy="16"><tspan id="SvgjsTspan1355" style="text-decoration:;">Alt</tspan></tspan></text></g></g><g id="SvgjsG1356" transform="translate(80 994)"><path id="SvgjsPath1357" fill="none" stroke="#323232" stroke-dasharray="10px, 6px" stroke-width="1" d="M 0 4 Q 0 0 4 0 L 579 0 Q 583 0 583 4 L 583 253 Q 583 257 579 257 L 4 257 Q 0 257 0 253 Z" /><path id="SvgjsPath1358" fill="none" stroke="#323232" stroke-dasharray="10px, 6px" stroke-width="1" d="M 0 25 L 174.9 25 L 182.9 17 L 182.9 0" /><path id="SvgjsPath1359" fill="none" stroke="none" d="M 0 0 L 583 0 L 583 257 L 0 257 Z" /><g id="SvgjsG1360"><text id="SvgjsText1361" font-family="Arial" font-size="13px" font-style="" font-weight="400" fill="#323232" text-anchor="start" transform="rotate(0)" y="28.05" width="65" align="top" anchor="start" family="Arial" size="13px" weight="400"><tspan id="SvgjsTspan1362" x="10" dy="16"><tspan id="SvgjsTspan1363" style="text-decoration:;">[left &lt; 1GB]</tspan></tspan></text></g><g id="SvgjsG1364"><text id="SvgjsText1365" font-family="Arial" font-size="13px" font-style="" font-weight="400" fill="#323232" text-anchor="start" transform="rotate(0)" y="2.55" width="15" align="middle" anchor="start" family="Arial" size="13px" weight="400"><tspan id="SvgjsTspan1366" x="10" dy="16"><tspan id="SvgjsTspan1367" style="text-decoration:;">Alt</tspan></tspan></text></g></g><g id="SvgjsG1368"><path id="SvgjsPath1369" fill="none" stroke="#323232" stroke-dasharray="8px, 5px" stroke-width="1" d="M 103 1166 L 626 1166" /></g><g id="SvgjsG1370"><path id="SvgjsPath1371" fill="none" stroke="#323232" stroke-dasharray="8px, 5px" stroke-width="1" d="M 103 1086 L 626 1086" /></g><g id="SvgjsG1372"><path id="SvgjsPath1373" fill="none" stroke="#323232" stroke-dasharray="8px, 5px" stroke-width="2" d="M 106.284 954.93 L 362.408 954.93 L 362.408 954.93 L 618.532 954.93" /></g><g id="SvgjsG1374" transform="translate(84 790)"><path id="SvgjsPath1375" fill="none" stroke="#323232" stroke-dasharray="10px, 6px" stroke-width="1" d="M 0 4 Q 0 0 4 0 L 575 0 Q 579 0 579 4 L 579 151 Q 579 155 575 155 L 4 155 Q 0 155 0 151 Z" /><path id="SvgjsPath1376" fill="none" stroke="#323232" stroke-dasharray="10px, 6px" stroke-width="1" d="M 0 25 L 173.7 25 L 181.7 17 L 181.7 0" /><path id="SvgjsPath1377" fill="none" stroke="none" d="M 0 0 L 579 0 L 579 155 L 0 155 Z" /><g id="SvgjsG1378"><text id="SvgjsText1379" font-family="Arial" font-size="13px" font-style="" font-weight="400" fill="#323232" text-anchor="start" transform="rotate(0)" y="28.05" width="81" align="top" anchor="start" family="Arial" size="13px" weight="400"><tspan id="SvgjsTspan1380" x="10" dy="16"><tspan id="SvgjsTspan1381" style="text-decoration:;">[left &lt; 400MB]</tspan></tspan></text></g><g id="SvgjsG1382"><text id="SvgjsText1383" font-family="Arial" font-size="13px" font-style="" font-weight="400" fill="#323232" text-anchor="start" transform="rotate(0)" y="2.55" width="15" align="middle" anchor="start" family="Arial" size="13px" weight="400"><tspan id="SvgjsTspan1384" x="10" dy="16"><tspan id="SvgjsTspan1385" style="text-decoration:;">Alt</tspan></tspan></text></g></g><g id="SvgjsG1386"><path id="SvgjsPath1387" fill="none" stroke="#323232" stroke-dasharray="8px, 5px" stroke-width="1" d="M 116.92 875.141 L 362.849 875.141 L 362.849 875.141 L 608.779 875.141" /></g><g id="SvgjsG1388" transform="translate(80 300)"><path id="SvgjsPath1389" fill="none" stroke="#323232" stroke-dasharray="10px, 6px" stroke-width="2" d="M 0 4 Q 0 0 4 0 L 594 0 Q 598 0 598 4 L 598 209 Q 598 213 594 213 L 4 213 Q 0 213 0 209 Z" /><path id="SvgjsPath1390" fill="none" stroke="#323232" stroke-dasharray="10px, 6px" stroke-width="2" d="M 0 25 L 179.4 25 L 187.4 17 L 187.4 0" /><path id="SvgjsPath1391" fill="none" stroke="none" d="M 0 0 L 598 0 L 598 213 L 0 213 Z" /><g id="SvgjsG1392"><text id="SvgjsText1393" font-family="Arial" font-size="13px" font-style="" font-weight="400" fill="#323232" text-anchor="start" transform="rotate(0)" y="28.05" width="98" align="top" anchor="start" family="Arial" size="13px" weight="400"><tspan id="SvgjsTspan1394" x="10" dy="16"><tspan id="SvgjsTspan1395" style="text-decoration:;">[uid/gid not exist]</tspan></tspan></text></g><g id="SvgjsG1396"><text id="SvgjsText1397" font-family="Arial" font-size="13px" font-style="" font-weight="400" fill="#323232" text-anchor="start" transform="rotate(0)" y="2.55" width="15" align="middle" anchor="start" family="Arial" size="13px" weight="400"><tspan id="SvgjsTspan1398" x="10" dy="16"><tspan id="SvgjsTspan1399" style="text-decoration:;">Alt</tspan></tspan></text></g></g><g id="SvgjsG1400" transform="translate(107 62)"><path id="SvgjsPath1401" fill="none" stroke="#323232" stroke-dasharray="3px, 4px" stroke-width="2" d="M 90.5 30 L 90.5 1800" /><path id="SvgjsPath1402" fill="#f5927b" fill-opacity="1" stroke="#323232" stroke-width="2" d="M 0 0 L 181 0 L 181 30 L 0 30 Z" /><g id="SvgjsG1403"><text id="SvgjsText1404" font-family="Arial" font-size="13px" font-style="" font-weight="400" fill="#323232" text-anchor="middle" transform="rotate(0)" y="5.05" width="37" align="middle" anchor="middle" family="Arial" size="13px" weight="400"><tspan id="SvgjsTspan1405" x="90.5" dy="16"><tspan id="SvgjsTspan1406" style="text-decoration:;">clients</tspan></tspan></text></g></g><g id="SvgjsG1407" transform="translate(494 62)"><path id="SvgjsPath1408" fill="none" stroke="#323232" stroke-dasharray="3px, 4px" stroke-width="2" d="M 90.5 30 L 90.5 1800" /><path id="SvgjsPath1409" fill="#f5927b" fill-opacity="1" stroke="#323232" stroke-width="2" d="M 0 0 L 181 0 L 181 30 L 0 30 Z" /><g id="SvgjsG1410"><text id="SvgjsText1411" font-family="Arial" font-size="13px" font-style="" font-weight="400" fill="#323232" text-anchor="middle" transform="rotate(0)" y="5.05" width="33" align="middle" anchor="middle" family="Arial" size="13px" weight="400"><tspan id="SvgjsTspan1412" x="90.5" dy="16"><tspan id="SvgjsTspan1413" style="text-decoration:;">quota</tspan></tspan></text></g></g><g id="SvgjsG1414" transform="translate(182.5 140)"><path id="SvgjsPath1415" fill="#f5927b" fill-opacity="1" stroke="#323232" stroke-width="2" d="M 0 4 Q 0 0 4 0 L 26 0 Q 30 0 30 4 L 30 448 Q 30 452 26 452 L 4 452 Q 0 452 0 448 L 0 4 Z" /></g><g id="SvgjsG1416" transform="translate(569.5 140)"><path id="SvgjsPath1417" fill="#f5927b" fill-opacity="1" stroke="#323232" stroke-width="2" d="M 0 4 Q 0 0 4 0 L 26 0 Q 30 0 30 4 L 30 53 Q 30 57 26 57 L 4 57 Q 0 57 0 53 L 0 4 Z" /></g><g id="SvgjsG1418"><path id="SvgjsPath1419" fill="none" marker-end="url(&quot;#SvgjsMarker1420&quot;)" stroke="#323232" stroke-width="2" d="M 212.121 147.153 L 391.022 147.153 L 391.022 145.868 L 569.924 145.868" /><rect id="SvgjsRect1422" fill="#ffffff" x="366.522" y="138.51" width="49" height="16" /><text id="SvgjsText1423" font-family="Arial" font-size="13px" font-style="" font-weight="400" fill="#323232" text-anchor="middle" transform="rotate(0)" y="136.5605" width="49" align="top" anchor="middle" family="Arial" size="13px" weight="400"><tspan id="SvgjsTspan1424" x="391.0224" dy="16"><tspan id="SvgjsTspan1425" style="text-decoration:;">open file</tspan></tspan></text></g><g id="SvgjsG1426"><path id="SvgjsPath1427" fill="none" marker-end="url(&quot;#SvgjsMarker1428&quot;)" stroke="#323232" stroke-dasharray="8px, 5px" stroke-width="2" d="M 570.532 194.714 L 391.266 194.714 L 391.266 195 L 212 195" /></g><g id="SvgjsG1430"><path id="SvgjsPath1431" fill="none" marker-end="url(&quot;#SvgjsMarker1432&quot;)" stroke="#323232" stroke-width="2" d="M 212 225 L 242 225 L 242 291 L 212 291" /><rect id="SvgjsRect1434" fill="#ffffff" x="189" y="250" width="106" height="16" /><text id="SvgjsText1435" font-family="Arial" font-size="13px" font-style="" font-weight="400" fill="#323232" text-anchor="middle" transform="rotate(0)" y="248.05" width="106" align="top" anchor="middle" family="Arial" size="13px" weight="400"><tspan id="SvgjsTspan1436" x="242" dy="16"><tspan id="SvgjsTspan1437" style="text-decoration:;">check uid/gid exist </tspan></tspan></text></g><g id="SvgjsG1438"><path id="SvgjsPath1439" fill="none" stroke="#323232" stroke-dasharray="8px, 5px" stroke-width="2" d="M 114 417 L 368 417 L 368 417 L 622 417" /></g><g id="SvgjsG1440" transform="translate(569.5 339)"><path id="SvgjsPath1441" fill="#f5927b" fill-opacity="1" stroke="#323232" stroke-width="2" d="M 0 4 Q 0 0 4 0 L 26 0 Q 30 0 30 4 L 30 50 Q 30 54 26 54 L 4 54 Q 0 54 0 50 L 0 4 Z" /></g><g id="SvgjsG1442"><path id="SvgjsPath1443" fill="none" marker-end="url(&quot;#SvgjsMarker1444&quot;)" stroke="#323232" stroke-width="2" d="M 212 340 L 391.181 340 L 391.181 340.5 L 570.362 340.5" /><rect id="SvgjsRect1446" fill="#ffffff" x="336.181" y="332.25" width="110" height="16" /><text id="SvgjsText1447" font-family="Arial" font-size="13px" font-style="" font-weight="400" fill="#323232" text-anchor="middle" transform="rotate(0)" y="330.2998" width="110" align="top" anchor="middle" family="Arial" size="13px" weight="400"><tspan id="SvgjsTspan1448" x="391.1812" dy="16"><tspan id="SvgjsTspan1449" style="text-decoration:;">request uid/gid info</tspan></tspan></text></g><g id="SvgjsG1450"><path id="SvgjsPath1451" fill="none" marker-end="url(&quot;#SvgjsMarker1452&quot;)" stroke="#323232" stroke-dasharray="8px, 5px" stroke-width="2" d="M 569.866 389.5 L 390.933 389.5 L 390.933 389 L 212 389" /></g><g id="SvgjsG1454"><path id="SvgjsPath1455" fill="none" marker-end="url(&quot;#SvgjsMarker1456&quot;)" stroke="#323232" stroke-width="2" d="M 212 439 L 242 439 L 242 495 L 212 495" /><rect id="SvgjsRect1458" fill="#ffffff" x="217.5" y="459" width="49" height="16" /><text id="SvgjsText1459" font-family="Arial" font-size="13px" font-style="" font-weight="400" fill="#323232" text-anchor="middle" transform="rotate(0)" y="457.05" width="49" align="top" anchor="middle" family="Arial" size="13px" weight="400"><tspan id="SvgjsTspan1460" x="242" dy="16"><tspan id="SvgjsTspan1461" style="text-decoration:;">continue</tspan></tspan></text></g><g id="SvgjsG1462" transform="translate(52.5 413)"><path id="SvgjsPath1463" fill="none" stroke="none" d="M 0 0 L 160 0 L 160 40 L 0 40 Z" /><g id="SvgjsG1464"><text id="SvgjsText1465" font-family="Arial" font-size="13px" font-style="" font-weight="400" fill="#323232" text-anchor="middle" transform="rotate(0)" y="10.05" width="76" align="middle" anchor="middle" family="Arial" size="13px" weight="400"><tspan id="SvgjsTspan1466" x="80" dy="16"><tspan id="SvgjsTspan1467" style="text-decoration:;">[uid/gid exist]</tspan></tspan></text></g></g><g id="SvgjsG1468" transform="translate(182.5 610)"><path id="SvgjsPath1469" fill="#f5927b" fill-opacity="1" stroke="#323232" stroke-width="2" d="M 0 4 Q 0 0 4 0 L 26 0 Q 30 0 30 4 L 30 710 Q 30 714 26 714 L 4 714 Q 0 714 0 710 L 0 4 Z" /></g><g id="SvgjsG1470" transform="translate(569.5 610)"><path id="SvgjsPath1471" fill="#f5927b" fill-opacity="1" stroke="#323232" stroke-width="2" d="M 0 4 Q 0 0 4 0 L 26 0 Q 30 0 30 4 L 30 701 Q 30 705 26 705 L 4 705 Q 0 705 0 701 L 0 4 Z" /></g><g id="SvgjsG1472"><path id="SvgjsPath1473" fill="none" marker-end="url(&quot;#SvgjsMarker1474&quot;)" stroke="#323232" stroke-width="2" d="M 212.03 620.026 L 569.939 620.442" /><rect id="SvgjsRect1476" fill="#ffffff" x="366.985" y="612.234" width="48" height="16" /><text id="SvgjsText1477" font-family="Arial" font-size="13px" font-style="" font-weight="400" fill="#323232" text-anchor="middle" transform="rotate(0)" y="610.2841" width="48" align="top" anchor="middle" family="Arial" size="13px" weight="400"><tspan id="SvgjsTspan1478" x="390.9848" dy="16"><tspan id="SvgjsTspan1479" style="text-decoration:;">write file</tspan></tspan></text></g><g id="SvgjsG1480"><path id="SvgjsPath1481" fill="none" marker-end="url(&quot;#SvgjsMarker1482&quot;)" stroke="#323232" stroke-width="2" d="M 599 637 L 629 637 L 629 715 L 599 715" /><rect id="SvgjsRect1484" fill="#ffffff" x="594" y="668" width="70" height="16" /><text id="SvgjsText1485" font-family="Arial" font-size="13px" font-style="" font-weight="400" fill="#323232" text-anchor="middle" transform="rotate(0)" y="666.05" width="70" align="top" anchor="middle" family="Arial" size="13px" weight="400"><tspan id="SvgjsTspan1486" x="629" dy="16"><tspan id="SvgjsTspan1487" style="text-decoration:;">check quota</tspan></tspan></text></g><g id="SvgjsG1488"><path id="SvgjsPath1489" fill="none" marker-end="url(&quot;#SvgjsMarker1490&quot;)" stroke="#323232" stroke-dasharray="8px, 5px" stroke-width="2" d="M 570 834 L 212 836" /><rect id="SvgjsRect1492" fill="#ffffff" x="340.5" y="827" width="101" height="16" /><text id="SvgjsText1493" font-family="Arial" font-size="13px" font-style="" font-weight="400" fill="#323232" text-anchor="middle" transform="rotate(0)" y="825.05" width="101" align="top" anchor="middle" family="Arial" size="13px" weight="400"><tspan id="SvgjsTspan1494" x="391" dy="16"><tspan id="SvgjsTspan1495" style="text-decoration:;">broadcast beggar </tspan></tspan></text></g><g id="SvgjsG1496"><path id="SvgjsPath1497" fill="none" marker-end="url(&quot;#SvgjsMarker1498&quot;)" stroke="#323232" stroke-dasharray="8px, 5px" stroke-width="2" d="M 570 905 L 212 905" /><rect id="SvgjsRect1500" fill="#ffffff" x="325" y="897" width="132" height="16" /><text id="SvgjsText1501" font-family="Arial" font-size="13px" font-style="" font-weight="400" fill="#323232" text-anchor="middle" transform="rotate(0)" y="895.05" width="132" align="top" anchor="middle" family="Arial" size="13px" weight="400"><tspan id="SvgjsTspan1502" x="391" dy="16"><tspan id="SvgjsTspan1503" style="text-decoration:;">broadcast approaching </tspan></tspan></text></g><g id="SvgjsG1504" transform="translate(62 954)"><path id="SvgjsPath1505" fill="none" stroke="none" d="M 0 0 L 141 0 L 141 37 L 0 37 Z" /><g id="SvgjsG1506"><text id="SvgjsText1507" font-family="Arial" font-size="13px" font-style="" font-weight="400" fill="#323232" text-anchor="middle" transform="rotate(0)" y="8.55" width="96" align="middle" anchor="middle" family="Arial" size="13px" weight="400"><tspan id="SvgjsTspan1508" x="70.5" dy="16"><tspan id="SvgjsTspan1509" style="text-decoration:;">[maxsize &gt; 1GB]</tspan></tspan></text></g></g><g id="SvgjsG1510"><path id="SvgjsPath1511" fill="none" marker-end="url(&quot;#SvgjsMarker1512&quot;)" stroke="#323232" stroke-dasharray="8px, 5px" stroke-width="2" d="M 570 1054 L 212 1056" /><rect id="SvgjsRect1514" fill="#ffffff" x="340.5" y="1047" width="101" height="16" /><text id="SvgjsText1515" font-family="Arial" font-size="13px" font-style="" font-weight="400" fill="#323232" text-anchor="middle" transform="rotate(0)" y="1045.05" width="101" align="top" anchor="middle" family="Arial" size="13px" weight="400"><tspan id="SvgjsTspan1516" x="391" dy="16"><tspan id="SvgjsTspan1517" style="text-decoration:;">broadcast beggar </tspan></tspan></text></g><g id="SvgjsG1518" transform="translate(78 1090)"><path id="SvgjsPath1519" fill="none" stroke="none" d="M 0 0 L 87 0 L 87 23 L 0 23 Z" /><g id="SvgjsG1520"><text id="SvgjsText1521" font-family="Arial" font-size="13px" font-style="" font-weight="400" fill="#323232" text-anchor="middle" transform="rotate(0)" y="1.55" width="73" align="middle" anchor="middle" family="Arial" size="13px" weight="400"><tspan id="SvgjsTspan1522" x="43.5" dy="16"><tspan id="SvgjsTspan1523" style="text-decoration:;">[left &lt; 10GB]</tspan></tspan></text></g></g><g id="SvgjsG1524"><path id="SvgjsPath1525" fill="none" marker-end="url(&quot;#SvgjsMarker1526&quot;)" stroke="#323232" stroke-dasharray="8px, 5px" stroke-width="2" d="M 570 1124 L 212 1126" /><rect id="SvgjsRect1528" fill="#ffffff" x="325" y="1117" width="132" height="16" /><text id="SvgjsText1529" font-family="Arial" font-size="13px" font-style="" font-weight="400" fill="#323232" text-anchor="middle" transform="rotate(0)" y="1115.05" width="132" align="top" anchor="middle" family="Arial" size="13px" weight="400"><tspan id="SvgjsTspan1530" x="391" dy="16"><tspan id="SvgjsTspan1531" style="text-decoration:;">broadcast approaching </tspan></tspan></text></g><g id="SvgjsG1532"><path id="SvgjsPath1533" fill="none" marker-end="url(&quot;#SvgjsMarker1534&quot;)" stroke="#323232" stroke-dasharray="8px, 5px" stroke-width="2" d="M 570 1204 L 212 1206" /><rect id="SvgjsRect1536" fill="#ffffff" x="335.5" y="1197" width="111" height="16" /><text id="SvgjsText1537" font-family="Arial" font-size="13px" font-style="" font-weight="400" fill="#323232" text-anchor="middle" transform="rotate(0)" y="1195.05" width="111" align="top" anchor="middle" family="Arial" size="13px" weight="400"><tspan id="SvgjsTspan1538" x="391" dy="16"><tspan id="SvgjsTspan1539" style="text-decoration:;">broadcast common </tspan></tspan></text></g><g id="SvgjsG1540" transform="translate(182.5 1361)"><path id="SvgjsPath1541" fill="#f5927b" fill-opacity="1" stroke="#323232" stroke-width="2" d="M 0 4 Q 0 0 4 0 L 26 0 Q 30 0 30 4 L 30 459 Q 30 463 26 463 L 4 463 Q 0 463 0 459 L 0 4 Z" /></g><g id="SvgjsG1542" transform="translate(39 1345)"><path id="SvgjsPath1543" fill="none" stroke="none" d="M 0 0 L 160 0 L 160 40 L 0 40 Z" /><g id="SvgjsG1544"><text id="SvgjsText1545" font-family="Arial" font-size="21px" font-style="" font-weight="700" fill="#323232" text-anchor="middle" transform="rotate(0)" y="3.85" width="98" align="middle" anchor="middle" family="Arial" size="21px" weight="700"><tspan id="SvgjsTspan1546" x="80" dy="26"><tspan id="SvgjsTspan1547" style="text-decoration:;">next write</tspan></tspan></text></g></g><g id="SvgjsG1548"><path id="SvgjsPath1549" fill="none" marker-end="url(&quot;#SvgjsMarker1550&quot;)" stroke="#323232" stroke-width="2" d="M 212 1376.8 L 242 1376.8 L 242 1425 L 212 1425" /><rect id="SvgjsRect1552" fill="#ffffff" x="212.5" y="1392.9" width="59" height="16" /><text id="SvgjsText1553" font-family="Arial" font-size="13px" font-style="" font-weight="400" fill="#323232" text-anchor="middle" transform="rotate(0)" y="1390.949" width="59" align="top" anchor="middle" family="Arial" size="13px" weight="400"><tspan id="SvgjsTspan1554" x="242" dy="16"><tspan id="SvgjsTspan1555" style="text-decoration:;">check flag</tspan></tspan></text></g><g id="SvgjsG1556" transform="translate(569.5 1581)"><path id="SvgjsPath1557" fill="#f5927b" fill-opacity="1" stroke="#323232" stroke-width="2" d="M 0 4 Q 0 0 4 0 L 26 0 Q 30 0 30 4 L 30 44 Q 30 48 26 48 L 4 48 Q 0 48 0 44 L 0 4 Z" /></g><g id="SvgjsG1558"><path id="SvgjsPath1559" fill="none" marker-end="url(&quot;#SvgjsMarker1560&quot;)" stroke="#323232" stroke-width="2" d="M 212 1493 L 242 1493 L 242 1547 L 212 1547" /><rect id="SvgjsRect1562" fill="#ffffff" x="201.5" y="1512" width="81" height="16" /><text id="SvgjsText1563" font-family="Arial" font-size="13px" font-style="" font-weight="400" fill="#323232" text-anchor="middle" transform="rotate(0)" y="1510.05" width="81" align="top" anchor="middle" family="Arial" size="13px" weight="400"><tspan id="SvgjsTspan1564" x="242" dy="16"><tspan id="SvgjsTspan1565" style="text-decoration:;">设置 No delay</tspan></tspan></text></g><g id="SvgjsG1566"><path id="SvgjsPath1567" fill="none" stroke="#323232" stroke-dasharray="8px, 5px" stroke-width="2" d="M 106.284 1564.93 L 362.408 1564.93 L 362.408 1564.93 L 618.532 1564.93" /></g><g id="SvgjsG1568" transform="translate(62 1566)"><path id="SvgjsPath1569" fill="none" stroke="none" d="M 0 0 L 100 0 L 100 27 L 0 27 Z" /><g id="SvgjsG1570"><text id="SvgjsText1571" font-family="Arial" font-size="13px" font-style="" font-weight="400" fill="#323232" text-anchor="middle" transform="rotate(0)" y="3.55" width="80" align="middle" anchor="middle" family="Arial" size="13px" weight="400"><tspan id="SvgjsTspan1572" x="50" dy="16"><tspan id="SvgjsTspan1573" style="text-decoration:;"> [flag=beggar]</tspan></tspan></text></g></g><g id="SvgjsG1574"><path id="SvgjsPath1575" fill="none" marker-end="url(&quot;#SvgjsMarker1576&quot;)" stroke="#323232" stroke-width="2" d="M 212 1581 L 391.048 1581 L 391.048 1581.9 L 570.096 1581.9" /><rect id="SvgjsRect1578" fill="#ffffff" x="330.048" y="1573.45" width="122" height="16" /><text id="SvgjsText1579" font-family="Arial" font-size="13px" font-style="" font-weight="400" fill="#323232" text-anchor="middle" transform="rotate(0)" y="1571.4983" width="122" align="top" anchor="middle" family="Arial" size="13px" weight="400"><tspan id="SvgjsTspan1580" x="391.0479" dy="16"><tspan id="SvgjsTspan1581" style="text-decoration:;">发送check quota请求</tspan></tspan></text></g><g id="SvgjsG1582"><path id="SvgjsPath1583" fill="none" marker-end="url(&quot;#SvgjsMarker1584&quot;)" stroke="#323232" stroke-width="2" d="M 570.532 1627.71 L 391.266 1627.71 L 391.266 1629 L 212 1629" /><rect id="SvgjsRect1586" fill="#ffffff" x="332.766" y="1620.36" width="117" height="16" /><text id="SvgjsText1587" font-family="Arial" font-size="13px" font-style="" font-weight="400" fill="#323232" text-anchor="middle" transform="rotate(0)" y="1618.4072" width="117" align="top" anchor="middle" family="Arial" size="13px" weight="400"><tspan id="SvgjsTspan1588" x="391.2661" dy="16"><tspan id="SvgjsTspan1589" style="text-decoration:;">返回是否允许继续写</tspan></tspan></text></g><g id="SvgjsG1590"><path id="SvgjsPath1591" fill="none" marker-end="url(&quot;#SvgjsMarker1592&quot;)" stroke="#323232" stroke-width="2" d="M 212 1691 L 391.048 1691 L 391.048 1691.9 L 570.096 1691.9" /><rect id="SvgjsRect1594" fill="#ffffff" x="351.048" y="1683.45" width="80" height="16" /><text id="SvgjsText1595" font-family="Arial" font-size="13px" font-style="" font-weight="400" fill="#323232" text-anchor="middle" transform="rotate(0)" y="1681.4982" width="80" align="top" anchor="middle" family="Arial" size="13px" weight="400"><tspan id="SvgjsTspan1596" x="391.0479" dy="16"><tspan id="SvgjsTspan1597" style="text-decoration:;">write continue</tspan></tspan></text></g><g id="SvgjsG1598" transform="translate(569.5 1691)"><path id="SvgjsPath1599" fill="#f5927b" fill-opacity="1" stroke="#323232" stroke-width="2" d="M 0 4 Q 0 0 4 0 L 26 0 Q 30 0 30 4 L 30 64 Q 30 68 26 68 L 4 68 Q 0 68 0 64 L 0 4 Z" /></g><g id="SvgjsG1600" transform="translate(98 1725)"><path id="SvgjsPath1601" fill="none" stroke="none" d="M 0 0 L 65 0 L 65 23 L 0 23 Z" /><g id="SvgjsG1602"><text id="SvgjsText1603" font-family="Arial" font-size="13px" font-style="" font-weight="400" fill="#323232" text-anchor="middle" transform="rotate(0)" y="1.55" width="55" align="middle" anchor="middle" family="Arial" size="13px" weight="400"><tspan id="SvgjsTspan1604" x="32.5" dy="16"><tspan id="SvgjsTspan1605" style="text-decoration:;">[rep = no]</tspan></tspan></text></g></g><g id="SvgjsG1606"><path id="SvgjsPath1607" fill="none" marker-end="url(&quot;#SvgjsMarker1608&quot;)" stroke="#323232" stroke-width="2" d="M 212 1742 L 242 1742 L 242 1781 L 212 1781" /><rect id="SvgjsRect1610" fill="#ffffff" x="202.5" y="1753.5" width="79" height="16" /><text id="SvgjsText1611" font-family="Arial" font-size="13px" font-style="" font-weight="400" fill="#323232" text-anchor="middle" transform="rotate(0)" y="1751.55" width="79" align="top" anchor="middle" family="Arial" size="13px" weight="400"><tspan id="SvgjsTspan1612" x="242" dy="16"><tspan id="SvgjsTspan1613" style="text-decoration:;">return excced</tspan></tspan></text></g></svg>