<svg xmlns="http://www.w3.org/2000/svg" xmlns:xlink="http://www.w3.org/1999/xlink" id="processonSvg1000" viewBox="27.666656494140625 17.333328247070312 1028.0 1463.0000457763672" width="1028.0" height="1463.0000457763672"><defs id="ProcessOnDefs1001"><marker id="ProcessOnMarker1026" markerUnits="userSpaceOnUse" orient="auto" markerWidth="16.23606797749979" markerHeight="10.550836550532098" viewBox="-1.0 -1.3763819204711736 16.23606797749979 10.550836550532098" refX="-1.0" refY="3.8990363547948754"><path id="ProcessOnPath1027" d="M12.0 3.8990363547948754L0.0 7.798072709589751V0.0Z" stroke="#323232" stroke-width="2.0" fill="#323232" transform="matrix(1.0,0.0,0.0,1.0,0.0,0.0)"/></marker><marker id="ProcessOnMarker1030" markerUnits="userSpaceOnUse" orient="auto" markerWidth="16.23606797749979" markerHeight="10.550836550532098" viewBox="-1.0 -1.3763819204711736 16.23606797749979 10.550836550532098" refX="-1.0" refY="3.8990363547948754"><path id="ProcessOnPath1031" d="M12.0 3.8990363547948754L0.0 7.798072709589751V0.0Z" stroke="#323232" stroke-width="2.0" fill="#323232" transform="matrix(1.0,0.0,0.0,1.0,0.0,0.0)"/></marker><marker id="ProcessOnMarker1034" markerUnits="userSpaceOnUse" orient="auto" markerWidth="16.23606797749979" markerHeight="10.550836550532098" viewBox="-1.0 -1.3763819204711736 16.23606797749979 10.550836550532098" refX="-1.0" refY="3.8990363547948754"><path id="ProcessOnPath1035" d="M12.0 3.8990363547948754L0.0 7.798072709589751V0.0Z" stroke="#323232" stroke-width="2.0" fill="#323232" transform="matrix(1.0,0.0,0.0,1.0,0.0,0.0)"/></marker><marker id="ProcessOnMarker1043" markerUnits="userSpaceOnUse" orient="auto" markerWidth="16.23606797749979" markerHeight="10.550836550532098" viewBox="-1.0 -1.3763819204711736 16.23606797749979 10.550836550532098" refX="-1.0" refY="3.8990363547948754"><path id="ProcessOnPath1044" d="M12.0 3.8990363547948754L0.0 7.798072709589751V0.0Z" stroke="#323232" stroke-width="2.0" fill="#323232" transform="matrix(1.0,0.0,0.0,1.0,0.0,0.0)"/></marker><marker id="ProcessOnMarker1047" markerUnits="userSpaceOnUse" orient="auto" markerWidth="16.23606797749979" markerHeight="10.550836550532098" viewBox="-1.0 -1.3763819204711736 16.23606797749979 10.550836550532098" refX="-1.0" refY="3.8990363547948754"><path id="ProcessOnPath1048" d="M12.0 3.8990363547948754L0.0 7.798072709589751V0.0Z" stroke="#323232" stroke-width="2.0" fill="#323232" transform="matrix(1.0,0.0,0.0,1.0,0.0,0.0)"/></marker><marker id="ProcessOnMarker1051" markerUnits="userSpaceOnUse" orient="auto" markerWidth="16.23606797749979" markerHeight="10.550836550532098" viewBox="-1.0 -1.3763819204711736 16.23606797749979 10.550836550532098" refX="-1.0" refY="3.8990363547948754"><path id="ProcessOnPath1052" d="M12.0 3.8990363547948754L0.0 7.798072709589751V0.0Z" stroke="#323232" stroke-width="2.0" fill="#323232" transform="matrix(1.0,0.0,0.0,1.0,0.0,0.0)"/></marker><marker id="ProcessOnMarker1055" markerUnits="userSpaceOnUse" orient="auto" markerWidth="16.23606797749979" markerHeight="10.550836550532098" viewBox="-1.0 -1.3763819204711736 16.23606797749979 10.550836550532098" refX="-1.0" refY="3.8990363547948754"><path id="ProcessOnPath1056" d="M12.0 3.8990363547948754L0.0 7.798072709589751V0.0Z" stroke="#323232" stroke-width="2.0" fill="#323232" transform="matrix(1.0,0.0,0.0,1.0,0.0,0.0)"/></marker><marker id="ProcessOnMarker1059" markerUnits="userSpaceOnUse" orient="auto" markerWidth="16.23606797749979" markerHeight="10.550836550532098" viewBox="-1.0 -1.3763819204711736 16.23606797749979 10.550836550532098" refX="-1.0" refY="3.8990363547948754"><path id="ProcessOnPath1060" d="M12.0 3.8990363547948754L0.0 7.798072709589751V0.0Z" stroke="#323232" stroke-width="2.0" fill="#323232" transform="matrix(1.0,0.0,0.0,1.0,0.0,0.0)"/></marker><marker id="ProcessOnMarker1071" markerUnits="userSpaceOnUse" orient="auto" markerWidth="16.23606797749979" markerHeight="10.550836550532098" viewBox="-1.0 -1.3763819204711736 16.23606797749979 10.550836550532098" refX="-1.0" refY="3.8990363547948754"><path id="ProcessOnPath1072" d="M12.0 3.8990363547948754L0.0 7.798072709589751V0.0Z" stroke="#323232" stroke-width="2.0" fill="#323232" transform="matrix(1.0,0.0,0.0,1.0,0.0,0.0)"/></marker><marker id="ProcessOnMarker1075" markerUnits="userSpaceOnUse" orient="auto" markerWidth="16.23606797749979" markerHeight="10.550836550532098" viewBox="-1.0 -1.3763819204711736 16.23606797749979 10.550836550532098" refX="-1.0" refY="3.8990363547948754"><path id="ProcessOnPath1076" d="M12.0 3.8990363547948754L0.0 7.798072709589751V0.0Z" stroke="#323232" stroke-width="2.0" fill="#323232" transform="matrix(1.0,0.0,0.0,1.0,0.0,0.0)"/></marker><marker id="ProcessOnMarker1079" markerUnits="userSpaceOnUse" orient="auto" markerWidth="16.23606797749979" markerHeight="10.550836550532098" viewBox="-1.0 -1.3763819204711736 16.23606797749979 10.550836550532098" refX="-1.0" refY="3.8990363547948754"><path id="ProcessOnPath1080" d="M12.0 3.8990363547948754L0.0 7.798072709589751V0.0Z" stroke="#323232" stroke-width="2.0" fill="#323232" transform="matrix(1.0,0.0,0.0,1.0,0.0,0.0)"/></marker><marker id="ProcessOnMarker1088" markerUnits="userSpaceOnUse" orient="auto" markerWidth="16.23606797749979" markerHeight="10.550836550532098" viewBox="-1.0 -1.3763819204711736 16.23606797749979 10.550836550532098" refX="-1.0" refY="3.8990363547948754"><path id="ProcessOnPath1089" d="M12.0 3.8990363547948754L0.0 7.798072709589751V0.0Z" stroke="#323232" stroke-width="2.0" fill="#323232" transform="matrix(1.0,0.0,0.0,1.0,0.0,0.0)"/></marker><marker id="ProcessOnMarker1097" markerUnits="userSpaceOnUse" orient="auto" markerWidth="16.23606797749979" markerHeight="10.550836550532098" viewBox="-1.0 -1.3763819204711736 16.23606797749979 10.550836550532098" refX="-1.0" refY="3.8990363547948754"><path id="ProcessOnPath1098" d="M12.0 3.8990363547948754L0.0 7.798072709589751V0.0Z" stroke="#323232" stroke-width="2.0" fill="#323232" transform="matrix(1.0,0.0,0.0,1.0,0.0,0.0)"/></marker><marker id="ProcessOnMarker1115" markerUnits="userSpaceOnUse" orient="auto" markerWidth="16.23606797749979" markerHeight="10.550836550532098" viewBox="-1.0 -1.3763819204711736 16.23606797749979 10.550836550532098" refX="-1.0" refY="3.8990363547948754"><path id="ProcessOnPath1116" d="M12.0 3.8990363547948754L0.0 7.798072709589751V0.0Z" stroke="#323232" stroke-width="2.0" fill="#323232" transform="matrix(1.0,0.0,0.0,1.0,0.0,0.0)"/></marker><marker id="ProcessOnMarker1123" markerUnits="userSpaceOnUse" orient="auto" markerWidth="16.23606797749979" markerHeight="10.550836550532098" viewBox="-1.0 -1.3763819204711736 16.23606797749979 10.550836550532098" refX="-1.0" refY="3.8990363547948754"><path id="ProcessOnPath1124" d="M12.0 3.8990363547948754L0.0 7.798072709589751V0.0Z" stroke="#323232" stroke-width="2.0" fill="#323232" transform="matrix(1.0,0.0,0.0,1.0,0.0,0.0)"/></marker><marker id="ProcessOnMarker1127" markerUnits="userSpaceOnUse" orient="auto" markerWidth="16.23606797749979" markerHeight="10.550836550532098" viewBox="-1.0 -1.3763819204711736 16.23606797749979 10.550836550532098" refX="-1.0" refY="3.8990363547948754"><path id="ProcessOnPath1128" d="M12.0 3.8990363547948754L0.0 7.798072709589751V0.0Z" stroke="#323232" stroke-width="2.0" fill="#323232" transform="matrix(1.0,0.0,0.0,1.0,0.0,0.0)"/></marker><marker id="ProcessOnMarker1154" markerUnits="userSpaceOnUse" orient="auto" markerWidth="16.23606797749979" markerHeight="10.550836550532098" viewBox="-1.0 -1.3763819204711736 16.23606797749979 10.550836550532098" refX="-1.0" refY="3.8990363547948754"><path id="ProcessOnPath1155" d="M12.0 3.8990363547948754L0.0 7.798072709589751V0.0Z" stroke="#323232" stroke-width="2.0" fill="#323232" transform="matrix(1.0,0.0,0.0,1.0,0.0,0.0)"/></marker></defs><g id="ProcessOnG1002"><path id="ProcessOnPath1003" d="M27.666656494140625 17.333328247070312H1055.6666564941406V1480.3333740234375H27.666656494140625V17.333328247070312Z" fill="none"/><g id="ProcessOnG1004"><g id="ProcessOnG1005" transform="matrix(1.0,0.0,0.0,1.0,47.666656494140625,37.33332824707031)" opacity="1.0"><path id="ProcessOnPath1006" d="M0 0L988.0 0L988.0 1423.0000457763672L0 1423.0000457763672Z" stroke="none" stroke-width="0.0" stroke-dasharray="none" fill="#ffffff"/></g><g id="ProcessOnG1007" transform="matrix(1.0,0.0,0.0,1.0,329.0,70.0)" opacity="1.0"><path id="ProcessOnPath1008" d="M16.666666666666668 0L83.33333333333333 0C105.55555555555556 0 105.55555555555556 50.0 83.33333333333333 50.0L16.666666666666668 50.0C-5.555555555555556 50.0 -5.555555555555556 0 16.666666666666668 0Z" stroke="#323232" stroke-width="2.0" stroke-dasharray="none" fill="#6ed464"/><g id="ProcessOnG1009" transform="matrix(1.0,0.0,0.0,1.0,10.0,16.875)"><text id="ProcessOnText1010" fill="#323232" font-size="13" x="39.0" y="13.325" font-family="微软雅黑" size="13" text-anchor="middle" font-weight="normal" font-style="normal" family="微软雅黑" text-decoration="none">start</text></g></g><g id="ProcessOnG1011" transform="matrix(1.0,0.0,0.0,1.0,84.0,372.0)" opacity="1.0"><path id="ProcessOnPath1012" d="M23.333333333333332 0L100.0 0L76.66666666666667 70.0L0 70.0L23.333333333333332 0Z" stroke="#323232" stroke-width="2.0" stroke-dasharray="none" fill="#6ed464"/><g id="ProcessOnG1013" transform="matrix(1.0,0.0,0.0,1.0,15.0,26.875)"><text id="ProcessOnText1014" fill="#323232" font-size="13" x="34.0" y="13.325" font-family="微软雅黑" size="13" text-anchor="middle" font-weight="normal" font-style="normal" family="微软雅黑" text-decoration="none">inodes</text></g></g><g id="ProcessOnG1015" transform="matrix(1.0,0.0,0.0,1.0,329.0,369.0)" opacity="1.0"><path id="ProcessOnPath1016" d="M23.333333333333332 0L100.0 0L76.66666666666667 70.0L0 70.0L23.333333333333332 0Z" stroke="#323232" stroke-width="2.0" stroke-dasharray="none" fill="#6ed464"/><g id="ProcessOnG1017" transform="matrix(1.0,0.0,0.0,1.0,15.0,18.75)"><text id="ProcessOnText1018" fill="#323232" font-size="13" x="34.0" y="13.325" font-family="微软雅黑" size="13" text-anchor="middle" font-weight="normal" font-style="normal" family="微软雅黑" text-decoration="none">inodes &amp;&amp; </text><text id="ProcessOnText1019" fill="#323232" font-size="13" x="34.0" y="29.575" font-family="微软雅黑" size="13" text-anchor="middle" font-weight="normal" font-style="normal" family="微软雅黑" text-decoration="none">bytes</text></g></g><g id="ProcessOnG1020" transform="matrix(1.0,0.0,0.0,1.0,580.0,372.0)" opacity="1.0"><path id="ProcessOnPath1021" d="M23.333333333333332 0L100.0 0L76.66666666666667 70.0L0 70.0L23.333333333333332 0Z" stroke="#323232" stroke-width="2.0" stroke-dasharray="none" fill="#6ed464"/><g id="ProcessOnG1022" transform="matrix(1.0,0.0,0.0,1.0,15.0,26.875)"><text id="ProcessOnText1023" fill="#323232" font-size="13" x="34.0" y="13.325" font-family="微软雅黑" size="13" text-anchor="middle" font-weight="normal" font-style="normal" family="微软雅黑" text-decoration="none">bytes</text></g></g><g id="ProcessOnG1024"><path id="ProcessOnPath1025" d="M379.0 120.0L379.0 152.5L379.0 152.5L379.0 169.7639320225002" stroke="#323232" stroke-width="2.0" stroke-dasharray="none" fill="none" marker-end="url(#ProcessOnMarker1026)"/></g><g id="ProcessOnG1028"><path id="ProcessOnPath1029" d="M379.0 120.0L379.0 152.5L379.0 152.5L379.0 169.7639320225002" stroke="#323232" stroke-width="2.0" stroke-dasharray="none" fill="none" marker-end="url(#ProcessOnMarker1030)"/></g><g id="ProcessOnG1032"><path id="ProcessOnPath1033" d="M379.0 120.0L379.0 152.5L379.0 152.5L379.0 169.7639320225002" stroke="#323232" stroke-width="2.0" stroke-dasharray="none" fill="none" marker-end="url(#ProcessOnMarker1034)"/></g><g id="ProcessOnG1036" transform="matrix(1.0,0.0,0.0,1.0,329.0,185.0)" opacity="1.0"><path id="ProcessOnPath1037" d="M0 0L100.0 0L100.0 70.0L0 70.0Z" stroke="#323232" stroke-width="2.0" stroke-dasharray="none" fill="#6ed464"/><g id="ProcessOnG1038" transform="matrix(1.0,0.0,0.0,1.0,10.0,18.75)"><text id="ProcessOnText1039" fill="#323232" font-size="13" x="39.0" y="13.325" font-family="微软雅黑" size="13" text-anchor="middle" font-weight="normal" font-style="normal" family="微软雅黑" text-decoration="none">client 发起请</text><text id="ProcessOnText1040" fill="#323232" font-size="13" x="39.0" y="29.575" font-family="微软雅黑" size="13" text-anchor="middle" font-weight="normal" font-style="normal" family="微软雅黑" text-decoration="none">求</text></g></g><g id="ProcessOnG1041"><path id="ProcessOnPath1042" d="M379.0 255.0L379.0 313.5L630.0 313.5L630.0 356.7639320225002" stroke="#323232" stroke-width="2.0" stroke-dasharray="none" fill="none" marker-end="url(#ProcessOnMarker1043)"/></g><g id="ProcessOnG1045"><path id="ProcessOnPath1046" d="M379.0 255.0L379.0 313.5L134.0 313.5L134.0 356.7639320225002" stroke="#323232" stroke-width="2.0" stroke-dasharray="none" fill="none" marker-end="url(#ProcessOnMarker1047)"/></g><g id="ProcessOnG1049"><path id="ProcessOnPath1050" d="M379.0 255.0L379.0 312.0L379.0 312.0L379.0 353.7639320225002" stroke="#323232" stroke-width="2.0" stroke-dasharray="none" fill="none" marker-end="url(#ProcessOnMarker1051)"/></g><g id="ProcessOnG1053"><path id="ProcessOnPath1054" d="M134.0 442.0L134.0 520.0L259.6666564941406 520.0L259.6666564941406 582.7639320225002" stroke="#323232" stroke-width="2.0" stroke-dasharray="none" fill="none" marker-end="url(#ProcessOnMarker1055)"/></g><g id="ProcessOnG1057"><path id="ProcessOnPath1058" d="M379.0 439.0L379.0 520.5L259.6666564941406 520.5L259.6666564941406 586.7639320225002" stroke="#323232" stroke-width="2.0" stroke-dasharray="none" fill="none" marker-end="url(#ProcessOnMarker1059)"/></g><g id="ProcessOnG1061" transform="matrix(1.0,0.0,0.0,1.0,209.66665649414062,602.0)" opacity="1.0"><path id="ProcessOnPath1062" d="M0 0L100.0 0L100.0 70.0L0 70.0Z" stroke="#323232" stroke-width="2.0" stroke-dasharray="none" fill="#6ed464"/><g id="ProcessOnG1063" transform="matrix(1.0,0.0,0.0,1.0,10.0,26.875)"><text id="ProcessOnText1064" fill="#323232" font-size="13" x="39.0" y="13.325" font-family="微软雅黑" size="13" text-anchor="middle" font-weight="normal" font-style="normal" family="微软雅黑" text-decoration="none">file handle </text></g></g><g id="ProcessOnG1065" transform="matrix(1.0,0.0,0.0,1.0,443.6666564941406,602.0)" opacity="1.0"><path id="ProcessOnPath1066" d="M0 0L100.0 0L100.0 70.0L0 70.0Z" stroke="#323232" stroke-width="2.0" stroke-dasharray="none" fill="#6ed464"/><g id="ProcessOnG1067" transform="matrix(1.0,0.0,0.0,1.0,10.0,26.875)"><text id="ProcessOnText1068" fill="#323232" font-size="13" x="39.0" y="13.325" font-family="微软雅黑" size="13" text-anchor="middle" font-weight="normal" font-style="normal" family="微软雅黑" text-decoration="none">cap update</text></g></g><g id="ProcessOnG1069"><path id="ProcessOnPath1070" d="M630.0 442.0L630.0 522.0L493.6666564941406 522.0L493.6666564941406 586.7639320225002" stroke="#323232" stroke-width="2.0" stroke-dasharray="none" fill="none" marker-end="url(#ProcessOnMarker1071)"/></g><g id="ProcessOnG1073"><path id="ProcessOnPath1074" d="M259.6666564941406 672.0L259.6666564941406 762.5L379.0 762.5L379.0 837.7639320225002" stroke="#323232" stroke-width="2.0" stroke-dasharray="none" fill="none" marker-end="url(#ProcessOnMarker1075)"/></g><g id="ProcessOnG1077"><path id="ProcessOnPath1078" d="M493.6666564941406 672.0L493.6666564941406 762.5L379.0 762.5L379.0 837.7639320225002" stroke="#323232" stroke-width="2.0" stroke-dasharray="none" fill="none" marker-end="url(#ProcessOnMarker1079)"/></g><g id="ProcessOnG1081" transform="matrix(1.0,0.0,0.0,1.0,334.0,853.0)" opacity="1.0"><path id="ProcessOnPath1082" d="M0 35.0L45.0 0L90.0 35.0L45.0 70.0L0 35.0Z" stroke="#323232" stroke-width="2.0" stroke-dasharray="none" fill="#6ed464"/><g id="ProcessOnG1083" transform="matrix(1.0,0.0,0.0,1.0,10.0,18.75)"><text id="ProcessOnText1084" fill="#323232" font-size="13" x="34.0" y="13.325" font-family="微软雅黑" size="13" text-anchor="middle" font-weight="normal" font-style="normal" family="微软雅黑" text-decoration="none">check </text><text id="ProcessOnText1085" fill="#323232" font-size="13" x="34.0" y="29.575" font-family="微软雅黑" size="13" text-anchor="middle" font-weight="normal" font-style="normal" family="微软雅黑" text-decoration="none">quota</text></g></g><g id="ProcessOnG1086"><path id="ProcessOnPath1087" d="M424.0 888.0L707.0 888.0L707.0 220.0L444.2360679774998 220.0" stroke="#323232" stroke-width="2.0" stroke-dasharray="none" fill="none" marker-end="url(#ProcessOnMarker1088)"/></g><g id="ProcessOnG1090" transform="matrix(1.0,0.0,0.0,1.0,329.0,986.3333740234375)" opacity="1.0"><path id="ProcessOnPath1091" d="M0 0L100.0 0L100.0 70.0L0 70.0Z" stroke="#323232" stroke-width="2.0" stroke-dasharray="none" fill="#6ed464"/><g id="ProcessOnG1092" transform="matrix(1.0,0.0,0.0,1.0,10.0,18.75)"><text id="ProcessOnText1093" fill="#323232" font-size="13" x="39.0" y="13.325" font-family="微软雅黑" size="13" text-anchor="middle" font-weight="normal" font-style="normal" family="微软雅黑" text-decoration="none">mds 日志文</text><text id="ProcessOnText1094" fill="#323232" font-size="13" x="39.0" y="29.575" font-family="微软雅黑" size="13" text-anchor="middle" font-weight="normal" font-style="normal" family="微软雅黑" text-decoration="none">件系统</text></g></g><g id="ProcessOnG1095"><path id="ProcessOnPath1096" d="M379.0 923.0L379.0 954.6666870117188L379.0 954.6666870117188L379.0 971.0973060459377" stroke="#323232" stroke-width="2.0" stroke-dasharray="none" fill="none" marker-end="url(#ProcessOnMarker1097)"/></g><g id="ProcessOnG1099" transform="matrix(1.0,0.0,0.0,1.0,521.6666564941406,861.3333435058594)" opacity="1.0"><path id="ProcessOnPath1100" d="M4.800000000000001 0L0 2.0L0 18.0L4.800000000000001 20.0M43.2 20.0L48.0 18.0L48.0 2.0L43.2 0" stroke="#323232" stroke-width="2.0" stroke-dasharray="none" fill="none"/><path id="ProcessOnPath1101" d="M0 0L48.0 0L48.0 20.0L0 20.0Z" stroke="none" stroke-width="0.0" stroke-dasharray="none" fill="none"/><g id="ProcessOnG1102" transform="matrix(1.0,0.0,0.0,1.0,10.0,1.875)"><text id="ProcessOnText1103" fill="#323232" font-size="13" x="13.0" y="13.325" font-family="微软雅黑" size="13" text-anchor="middle" font-weight="normal" font-style="normal" family="微软雅黑" text-decoration="none">no</text></g></g><g id="ProcessOnG1104" transform="matrix(1.0,0.0,0.0,1.0,387.6666564941406,937.3333435058594)" opacity="1.0"><path id="ProcessOnPath1105" d="M4.800000000000001 0L0 2.0L0 18.0L4.800000000000001 20.0M43.2 20.0L48.0 18.0L48.0 2.0L43.2 0" stroke="#323232" stroke-width="2.0" stroke-dasharray="none" fill="none"/><path id="ProcessOnPath1106" d="M0 0L48.0 0L48.0 20.0L0 20.0Z" stroke="none" stroke-width="0.0" stroke-dasharray="none" fill="none"/><g id="ProcessOnG1107" transform="matrix(1.0,0.0,0.0,1.0,10.0,1.875)"><text id="ProcessOnText1108" fill="#323232" font-size="13" x="13.0" y="13.325" font-family="微软雅黑" size="13" text-anchor="middle" font-weight="normal" font-style="normal" family="微软雅黑" text-decoration="none">yes</text></g></g><g id="ProcessOnG1109" transform="matrix(1.0,0.0,0.0,1.0,541.0,1231.3333435058594)" opacity="1.0"><path id="ProcessOnPath1110" d="M15.0 0L88.33333333333333 0C103.18181818181819 0 103.18181818181819 70.0 88.33333333333333 70.0L15.0 70.0C-5.0 70.0 -5.0 0 15.0 0ZM88.33333333333333 0C73.75 0 73.75 70.0 88.33333333333333 70.0C73.75 70.0 73.75 0 88.33333333333333 0" stroke="#323232" stroke-width="2.0" stroke-dasharray="none" fill="#6ed464"/><g id="ProcessOnG1111" transform="matrix(1.0,0.0,0.0,1.0,0.0,26.875)"><text id="ProcessOnText1112" fill="#323232" font-size="13" x="39.0" y="13.325" font-family="微软雅黑" size="13" text-anchor="middle" font-weight="normal" font-style="normal" family="微软雅黑" text-decoration="none">存储</text></g></g><g id="ProcessOnG1113"><path id="ProcessOnPath1114" d="M379.0 1056.3333740234375L379.0 1143.8333587646484L591.0 1143.8333587646484L591.0 1216.0972755283597" stroke="#323232" stroke-width="2.0" stroke-dasharray="none" fill="none" marker-end="url(#ProcessOnMarker1115)"/></g><g id="ProcessOnG1117" transform="matrix(1.0,0.0,0.0,1.0,717.6666564941406,986.3333740234375)" opacity="1.0"><path id="ProcessOnPath1118" d="M0 0L100.0 0L100.0 70.0L0 70.0Z" stroke="#323232" stroke-width="2.0" stroke-dasharray="none" fill="#6ed464"/><g id="ProcessOnG1119" transform="matrix(1.0,0.0,0.0,1.0,10.0,26.875)"><text id="ProcessOnText1120" fill="#323232" font-size="13" x="39.0" y="13.325" font-family="微软雅黑" size="13" text-anchor="middle" font-weight="normal" font-style="normal" family="微软雅黑" text-decoration="none">quota server</text></g></g><g id="ProcessOnG1121"><path id="ProcessOnPath1122" d="M429.0 1021.3333740234375L573.3333282470703 1021.3333740234375L573.3333282470703 1021.3333740234375L702.4305885166408 1021.3333740234375" stroke="#323232" stroke-width="2.0" stroke-dasharray="none" fill="none" marker-end="url(#ProcessOnMarker1123)"/></g><g id="ProcessOnG1125"><path id="ProcessOnPath1126" d="M641.0 1266.3333435058594L847.6666564941406 1266.3333435058594L847.6666564941406 1021.3333740234375L832.9027244716405 1021.3333740234375" stroke="#323232" stroke-width="2.0" stroke-dasharray="none" fill="none" marker-end="url(#ProcessOnMarker1127)"/></g><g id="ProcessOnG1129" transform="matrix(1.0,0.0,0.0,1.0,418.0,1108.0)" opacity="1.0"><path id="ProcessOnPath1130" d="M15.133331298828125 0L0 2.6333374023437504L0 23.70003662109375L15.133331298828125 26.3333740234375M136.19998168945312 26.3333740234375L151.33331298828125 23.70003662109375L151.33331298828125 2.6333374023437504L136.19998168945312 0" stroke="#323232" stroke-width="2.0" stroke-dasharray="none" fill="none"/><path id="ProcessOnPath1131" d="M0 0L151.33331298828125 0L151.33331298828125 26.3333740234375L0 26.3333740234375Z" stroke="none" stroke-width="0.0" stroke-dasharray="none" fill="none"/><g id="ProcessOnG1132" transform="matrix(1.0,0.0,0.0,1.0,10.0,5.04168701171875)"><text id="ProcessOnText1133" fill="#323232" font-size="13" x="64.66665649414062" y="13.325" font-family="微软雅黑" size="13" text-anchor="middle" font-weight="normal" font-style="normal" family="微软雅黑" text-decoration="none">metadata(Event)</text></g></g><g id="ProcessOnG1134" transform="matrix(1.0,0.0,0.0,1.0,861.0,1096.3333435058594)" opacity="1.0"><path id="ProcessOnPath1135" d="M11.466665649414063 0L0 2.6000030517578128L0 23.400027465820312L11.466665649414063 26.000030517578125M103.19999084472656 26.000030517578125L114.66665649414062 23.400027465820312L114.66665649414062 2.6000030517578128L103.19999084472656 0" stroke="#323232" stroke-width="2.0" stroke-dasharray="none" fill="none"/><path id="ProcessOnPath1136" d="M0 0L114.66665649414062 0L114.66665649414062 26.000030517578125L0 26.000030517578125Z" stroke="none" stroke-width="0.0" stroke-dasharray="none" fill="none"/><g id="ProcessOnG1137" transform="matrix(1.0,0.0,0.0,1.0,10.0,-3.2499847412109375)"><text id="ProcessOnText1138" fill="#323232" font-size="13" x="46.33332824707031" y="13.325" font-family="微软雅黑" size="13" text-anchor="middle" font-weight="normal" font-style="normal" family="微软雅黑" text-decoration="none">周期read </text><text id="ProcessOnText1139" fill="#323232" font-size="13" x="46.33332824707031" y="29.575" font-family="微软雅黑" size="13" text-anchor="middle" font-weight="normal" font-style="normal" family="微软雅黑" text-decoration="none">quota info</text></g></g><g id="ProcessOnG1140" transform="matrix(1.0,0.0,0.0,1.0,861.0,948.3333740234375)" opacity="1.0"><path id="ProcessOnPath1141" d="M16.666666666666668 0L0 0L0 70.0L16.666666666666668 70.0" stroke="#323232" stroke-width="2.0" stroke-dasharray="none" fill="none"/><path id="ProcessOnPath1142" d="M0 0L100.0 0L100.0 70.0L0 70.0Z" stroke="none" stroke-width="0.0" stroke-dasharray="none" fill="none"/><g id="ProcessOnG1143" transform="matrix(1.0,0.0,0.0,1.0,10.0,2.5)"><text id="ProcessOnText1144" fill="#323232" font-size="13" x="39.0" y="13.325" font-family="微软雅黑" size="13" text-anchor="middle" font-weight="normal" font-style="normal" family="微软雅黑" text-decoration="none">注：uid/gid </text><text id="ProcessOnText1145" fill="#323232" font-size="13" x="39.0" y="29.575" font-family="微软雅黑" size="13" text-anchor="middle" font-weight="normal" font-style="normal" family="微软雅黑" text-decoration="none">info 链表长</text><text id="ProcessOnText1146" fill="#323232" font-size="13" x="39.0" y="45.825" font-family="微软雅黑" size="13" text-anchor="middle" font-weight="normal" font-style="normal" family="微软雅黑" text-decoration="none">度限制在100</text><text id="ProcessOnText1147" fill="#323232" font-size="13" x="39.0" y="62.075" font-family="微软雅黑" size="13" text-anchor="middle" font-weight="normal" font-style="normal" family="微软雅黑" text-decoration="none">0个</text></g></g><g id="ProcessOnG1148" transform="matrix(1.0,0.0,0.0,1.0,541.0,1380.3333740234375)" opacity="1.0"><path id="ProcessOnPath1149" d="M16.666666666666668 0L83.33333333333333 0C105.55555555555556 0 105.55555555555556 50.0 83.33333333333333 50.0L16.666666666666668 50.0C-5.555555555555556 50.0 -5.555555555555556 0 16.666666666666668 0Z" stroke="#323232" stroke-width="2.0" stroke-dasharray="none" fill="#6ed464"/><g id="ProcessOnG1150" transform="matrix(1.0,0.0,0.0,1.0,10.0,16.875)"><text id="ProcessOnText1151" fill="#323232" font-size="13" x="39.0" y="13.325" font-family="微软雅黑" size="13" text-anchor="middle" font-weight="normal" font-style="normal" family="微软雅黑" text-decoration="none">end</text></g></g><g id="ProcessOnG1152"><path id="ProcessOnPath1153" d="M591.0 1301.3333435058594L591.0 1340.8333587646484L591.0 1340.8333587646484L591.0 1365.0973060459378" stroke="#323232" stroke-width="2.0" stroke-dasharray="none" fill="none" marker-end="url(#ProcessOnMarker1154)"/></g><g id="ProcessOnG1156" transform="matrix(1.0,0.0,0.0,1.0,512.0,992.3333435058594)" opacity="1.0"><path id="ProcessOnPath1157" d="M11.466665649414063 0L0 2.6000030517578128L0 23.400027465820312L11.466665649414063 26.000030517578125M103.19999084472656 26.000030517578125L114.66665649414062 23.400027465820312L114.66665649414062 2.6000030517578128L103.19999084472656 0" stroke="#323232" stroke-width="2.0" stroke-dasharray="none" fill="none"/><path id="ProcessOnPath1158" d="M0 0L114.66665649414062 0L114.66665649414062 26.000030517578125L0 26.000030517578125Z" stroke="none" stroke-width="0.0" stroke-dasharray="none" fill="none"/><g id="ProcessOnG1159" transform="matrix(1.0,0.0,0.0,1.0,10.0,-3.2499847412109375)"><text id="ProcessOnText1160" fill="#323232" font-size="13" x="46.33332824707031" y="13.325" font-family="微软雅黑" size="13" text-anchor="middle" font-weight="normal" font-style="normal" family="微软雅黑" text-decoration="none">bytes/inodes </text><text id="ProcessOnText1161" fill="#323232" font-size="13" x="46.33332824707031" y="29.575" font-family="微软雅黑" size="13" text-anchor="middle" font-weight="normal" font-style="normal" family="微软雅黑" text-decoration="none">count</text></g></g><g id="ProcessOnG1162" transform="matrix(1.0,0.0,0.0,1.0,173.66665649414062,418.66666412353516)" opacity="1.0"><path id="ProcessOnPath1163" d="M9.0 0L0 0L0 20.333335876464844L9.0 20.333335876464844" stroke="#323232" stroke-width="2.0" stroke-dasharray="none" fill="none"/><path id="ProcessOnPath1164" d="M0 0L54.0 0L54.0 20.333335876464844L0 20.333335876464844Z" stroke="none" stroke-width="0.0" stroke-dasharray="none" fill="none"/><g id="ProcessOnG1165" transform="matrix(1.0,0.0,0.0,1.0,10.0,-6.083332061767578)"><text id="ProcessOnText1166" fill="#323232" font-size="13" x="16.0" y="13.325" font-family="微软雅黑" size="13" text-anchor="middle" font-weight="normal" font-style="normal" family="微软雅黑" text-decoration="none">注1</text><text id="ProcessOnText1167" fill="#323232" font-size="13" x="16.0" y="29.575" font-family="微软雅黑" size="13" text-anchor="middle" font-weight="normal" font-style="normal" family="微软雅黑" text-decoration="none">：</text></g></g><g id="ProcessOnG1168" transform="matrix(1.0,0.0,0.0,1.0,418.0,418.66666412353516)" opacity="1.0"><path id="ProcessOnPath1169" d="M9.0 0L0 0L0 20.333335876464844L9.0 20.333335876464844" stroke="#323232" stroke-width="2.0" stroke-dasharray="none" fill="none"/><path id="ProcessOnPath1170" d="M0 0L54.0 0L54.0 20.333335876464844L0 20.333335876464844Z" stroke="none" stroke-width="0.0" stroke-dasharray="none" fill="none"/><g id="ProcessOnG1171" transform="matrix(1.0,0.0,0.0,1.0,10.0,-6.083332061767578)"><text id="ProcessOnText1172" fill="#323232" font-size="13" x="16.0" y="13.325" font-family="微软雅黑" size="13" text-anchor="middle" font-weight="normal" font-style="normal" family="微软雅黑" text-decoration="none">注2</text><text id="ProcessOnText1173" fill="#323232" font-size="13" x="16.0" y="29.575" font-family="微软雅黑" size="13" text-anchor="middle" font-weight="normal" font-style="normal" family="微软雅黑" text-decoration="none">：</text></g></g><g id="ProcessOnG1174" transform="matrix(1.0,0.0,0.0,1.0,538.6666564941406,418.66666412353516)" opacity="1.0"><path id="ProcessOnPath1175" d="M9.0 0L0 0L0 20.333335876464844L9.0 20.333335876464844" stroke="#323232" stroke-width="2.0" stroke-dasharray="none" fill="none"/><path id="ProcessOnPath1176" d="M0 0L54.0 0L54.0 20.333335876464844L0 20.333335876464844Z" stroke="none" stroke-width="0.0" stroke-dasharray="none" fill="none"/><g id="ProcessOnG1177" transform="matrix(1.0,0.0,0.0,1.0,10.0,-6.083332061767578)"><text id="ProcessOnText1178" fill="#323232" font-size="13" x="16.0" y="13.325" font-family="微软雅黑" size="13" text-anchor="middle" font-weight="normal" font-style="normal" family="微软雅黑" text-decoration="none">注3</text><text id="ProcessOnText1179" fill="#323232" font-size="13" x="16.0" y="29.575" font-family="微软雅黑" size="13" text-anchor="middle" font-weight="normal" font-style="normal" family="微软雅黑" text-decoration="none">：</text></g></g><g id="ProcessOnG1180" transform="matrix(1.0,0.0,0.0,1.0,418.0,1158.0)" opacity="1.0"><path id="ProcessOnPath1181" d="M15.133331298828125 0L0 2.6333374023437504L0 23.70003662109375L15.133331298828125 26.3333740234375M136.19998168945312 26.3333740234375L151.33331298828125 23.70003662109375L151.33331298828125 2.6333374023437504L136.19998168945312 0" stroke="#323232" stroke-width="2.0" stroke-dasharray="none" fill="none"/><path id="ProcessOnPath1182" d="M0 0L151.33331298828125 0L151.33331298828125 26.3333740234375L0 26.3333740234375Z" stroke="none" stroke-width="0.0" stroke-dasharray="none" fill="none"/><g id="ProcessOnG1183" transform="matrix(1.0,0.0,0.0,1.0,10.0,5.04168701171875)"><text id="ProcessOnText1184" fill="#323232" font-size="13" x="64.66665649414062" y="13.325" font-family="微软雅黑" size="13" text-anchor="middle" font-weight="normal" font-style="normal" family="微软雅黑" text-decoration="none">bytes/inodes count</text></g></g></g></g></svg>